<svg width="624" height="544" viewBox="0 0 624 544" fill="none" xmlns="http://www.w3.org/2000/svg">
<g opacity="0.05" clip-path="url(#clip0_16_626)">
<path d="M562.623 283.106C562.704 350.421 536.709 415.145 490.101 463.674C487.291 466.618 484.405 469.492 481.444 472.294C476.932 476.59 472.268 480.719 467.453 484.682C422.409 521.827 366.175 542.7 307.825 543.934C305.881 543.978 303.929 544 301.97 544C255.435 544 196.904 519.122 143.787 484.682C139.393 481.833 135.037 478.918 130.721 475.937C128.703 474.556 126.696 473.156 124.698 471.736C104.211 457.258 84.7657 441.358 66.5042 424.153C54.5478 412.922 43.3358 400.922 32.9396 388.23C-7.87356 337.842 -16.8755 292.439 41.3106 283.106C48.1996 282.005 54.8856 280.828 61.3686 279.574C70.7594 277.768 79.7467 275.817 88.3304 273.722C99.8928 270.909 110.756 267.86 120.919 264.572C124.338 263.471 127.679 262.347 130.941 261.202C179.171 244.247 211.452 222.136 233.425 198.146C237.152 194.086 240.588 189.976 243.733 185.817C248.545 179.487 252.915 172.833 256.814 165.903C262.195 156.273 266.715 146.186 270.32 135.759L270.519 135.186C288.001 84.7099 282.682 37.8902 301.97 22.2199C384.418 -44.7714 487.064 50.6305 535.243 163.134C537.671 168.803 539.955 174.506 542.095 180.244C543.056 182.807 543.983 185.374 544.876 187.947C547.223 194.651 549.353 201.372 551.266 208.111C551.999 210.681 552.699 213.249 553.364 215.814C554.076 218.582 554.758 221.343 555.389 224.104C560.077 244.32 562.623 264.257 562.623 283.106Z" fill="#F2F2F2"/>
<path d="M307.825 543.934C305.881 543.978 303.929 544 301.97 544C255.435 544 196.904 519.122 143.787 484.682C139.393 481.833 135.037 478.918 130.721 475.937L134.507 452.879L249.11 437.65L306.629 481.672L307.825 543.934Z" fill="#2F2E41"/>
<path d="M313.342 132.213H297.011C296.505 132.213 296.02 132.414 295.662 132.772C295.304 133.13 295.103 133.615 295.103 134.122V150.475C295.104 150.725 295.153 150.973 295.249 151.204C295.345 151.435 295.486 151.645 295.663 151.822C295.84 151.998 296.05 152.138 296.282 152.234C296.513 152.329 296.761 152.377 297.011 152.377H313.342C313.846 152.377 314.331 152.177 314.688 151.82C315.046 151.464 315.248 150.98 315.249 150.475V134.122C315.248 133.616 315.046 133.131 314.689 132.773C314.332 132.416 313.847 132.214 313.342 132.213Z" fill="white"/>
<path d="M313.342 160.08H297.011C296.505 160.08 296.02 160.281 295.662 160.639C295.304 160.997 295.103 161.483 295.103 161.989V178.342C295.104 178.592 295.153 178.84 295.249 179.071C295.345 179.302 295.486 179.512 295.663 179.689C295.84 179.866 296.05 180.005 296.282 180.101C296.513 180.196 296.761 180.245 297.011 180.244H313.342C313.846 180.244 314.331 180.044 314.688 179.688C315.046 179.331 315.248 178.847 315.249 178.342V161.989C315.248 161.483 315.046 160.998 314.689 160.641C314.332 160.283 313.847 160.081 313.342 160.08Z" fill="#E6E6E6"/>
<path d="M313.342 187.947H297.011C296.505 187.947 296.02 188.148 295.662 188.506C295.304 188.864 295.103 189.35 295.103 189.856V206.202C295.103 206.453 295.152 206.701 295.247 206.933C295.343 207.165 295.484 207.376 295.661 207.553C295.838 207.73 296.048 207.871 296.28 207.967C296.512 208.062 296.76 208.111 297.011 208.111H313.342C313.848 208.111 314.333 207.91 314.69 207.552C315.048 207.194 315.249 206.708 315.249 206.202V189.856C315.248 189.35 315.046 188.865 314.689 188.508C314.332 188.15 313.847 187.948 313.342 187.947Z" fill="#E6E6E6"/>
<path d="M315.22 217.385C315.139 216.946 314.906 216.548 314.564 216.261C314.221 215.974 313.789 215.816 313.342 215.814H297.011C296.505 215.814 296.02 216.015 295.662 216.373C295.305 216.731 295.103 217.217 295.103 217.723V234.069C295.103 234.32 295.152 234.568 295.247 234.8C295.343 235.032 295.484 235.243 295.661 235.42C295.838 235.597 296.048 235.738 296.28 235.834C296.512 235.93 296.76 235.979 297.011 235.978H313.342C313.848 235.978 314.333 235.777 314.69 235.419C315.048 235.061 315.249 234.575 315.249 234.069V217.723C315.251 217.61 315.241 217.497 315.22 217.385Z" fill="#E6E6E6"/>
<path d="M314.083 243.828C313.848 243.731 313.596 243.681 313.342 243.681H297.011C296.76 243.681 296.512 243.73 296.28 243.825C296.049 243.921 295.838 244.062 295.661 244.239C295.484 244.417 295.343 244.627 295.248 244.859C295.152 245.091 295.103 245.339 295.103 245.59V261.936C295.102 262.187 295.151 262.436 295.246 262.668C295.342 262.9 295.482 263.111 295.66 263.289C295.837 263.466 296.048 263.607 296.279 263.702C296.511 263.798 296.76 263.846 297.011 263.845H313.342C313.848 263.845 314.333 263.644 314.69 263.286C315.048 262.928 315.249 262.442 315.249 261.936V245.59C315.249 245.215 315.138 244.847 314.93 244.534C314.723 244.221 314.428 243.975 314.083 243.828Z" fill="#E6E6E6"/>
<path d="M347.647 132.213H331.316C330.811 132.213 330.326 132.414 329.968 132.772C329.61 133.13 329.409 133.615 329.409 134.122V150.475C329.409 150.725 329.459 150.973 329.555 151.204C329.651 151.435 329.791 151.645 329.969 151.822C330.146 151.998 330.356 152.138 330.587 152.234C330.819 152.329 331.066 152.377 331.316 152.377H347.647C348.152 152.377 348.636 152.177 348.994 151.82C349.351 151.464 349.553 150.98 349.555 150.475V134.122C349.554 133.616 349.352 133.131 348.995 132.773C348.637 132.416 348.153 132.214 347.647 132.213Z" fill="#E6E6E6"/>
<path d="M347.647 160.08H331.316C330.811 160.08 330.325 160.281 329.968 160.639C329.61 160.997 329.409 161.483 329.409 161.989V178.342C329.409 178.592 329.459 178.84 329.555 179.071C329.651 179.302 329.791 179.512 329.969 179.689C330.146 179.866 330.356 180.005 330.587 180.101C330.819 180.196 331.066 180.245 331.316 180.244H347.647C348.152 180.244 348.636 180.044 348.994 179.688C349.352 179.331 349.553 178.847 349.555 178.342V161.989C349.554 161.483 349.352 160.998 348.995 160.641C348.637 160.283 348.153 160.081 347.647 160.08Z" fill="#18FBCC"/>
<path d="M347.647 187.947H331.316C330.811 187.947 330.325 188.148 329.968 188.506C329.61 188.864 329.409 189.35 329.409 189.856V206.202C329.408 206.453 329.457 206.701 329.553 206.933C329.649 207.165 329.789 207.376 329.966 207.553C330.144 207.73 330.354 207.871 330.586 207.967C330.817 208.062 331.066 208.111 331.316 208.111H347.647C348.153 208.111 348.638 207.91 348.996 207.552C349.354 207.194 349.555 206.708 349.555 206.202V189.856C349.554 189.35 349.352 188.865 348.995 188.508C348.637 188.15 348.153 187.948 347.647 187.947Z" fill="#18FBCC"/>
<path d="M347.647 215.814H331.316C330.916 215.814 330.527 215.941 330.203 216.175C329.879 216.41 329.637 216.741 329.512 217.121C329.444 217.314 329.409 217.518 329.409 217.723V234.069C329.408 234.32 329.457 234.568 329.553 234.8C329.649 235.032 329.789 235.243 329.966 235.42C330.144 235.597 330.354 235.738 330.586 235.834C330.817 235.93 331.066 235.979 331.316 235.978H347.647C348.153 235.978 348.638 235.777 348.996 235.419C349.354 235.061 349.555 234.575 349.555 234.069V217.723C349.554 217.217 349.352 216.732 348.995 216.375C348.637 216.017 348.153 215.815 347.647 215.814Z" fill="#18FBCC"/>
<path d="M347.647 243.681H331.316C331.066 243.681 330.817 243.73 330.586 243.825C330.354 243.921 330.144 244.062 329.966 244.239C329.789 244.417 329.649 244.627 329.553 244.859C329.457 245.091 329.408 245.339 329.409 245.59V261.936C329.408 262.187 329.457 262.435 329.553 262.667C329.649 262.899 329.789 263.11 329.966 263.287C330.144 263.465 330.354 263.605 330.586 263.701C330.817 263.797 331.066 263.846 331.316 263.845H347.647C348.153 263.845 348.638 263.644 348.996 263.286C349.354 262.928 349.555 262.442 349.555 261.936V245.59C349.555 245.084 349.354 244.599 348.996 244.241C348.638 243.883 348.153 243.681 347.647 243.681Z" fill="#E6E6E6"/>
<path d="M381.953 132.213H365.622C365.116 132.213 364.631 132.414 364.274 132.772C363.916 133.13 363.715 133.615 363.715 134.122V150.475C363.715 150.725 363.764 150.973 363.86 151.204C363.956 151.435 364.097 151.645 364.274 151.822C364.451 151.998 364.662 152.138 364.893 152.234C365.124 152.329 365.372 152.377 365.622 152.377H381.953C382.458 152.377 382.942 152.177 383.3 151.82C383.657 151.464 383.859 150.98 383.861 150.475V134.122C383.859 133.616 383.658 133.131 383.3 132.773C382.943 132.416 382.459 132.214 381.953 132.213Z" fill="#18FBCC"/>
<path d="M381.953 160.08H365.622C365.116 160.08 364.631 160.281 364.273 160.639C363.916 160.997 363.715 161.483 363.715 161.989V178.342C363.715 178.592 363.764 178.84 363.86 179.071C363.956 179.302 364.097 179.512 364.274 179.689C364.451 179.866 364.662 180.005 364.893 180.101C365.124 180.196 365.372 180.245 365.622 180.244H381.953C382.458 180.244 382.942 180.044 383.3 179.688C383.657 179.331 383.859 178.847 383.861 178.342V161.989C383.859 161.483 383.658 160.998 383.3 160.641C382.943 160.283 382.459 160.081 381.953 160.08Z" fill="#18FBCC"/>
<path d="M381.953 187.947H365.622C365.116 187.947 364.631 188.148 364.273 188.506C363.916 188.864 363.715 189.35 363.715 189.856V206.202C363.714 206.453 363.763 206.701 363.859 206.933C363.954 207.165 364.095 207.376 364.272 207.553C364.449 207.73 364.66 207.871 364.891 207.967C365.123 208.062 365.371 208.111 365.622 208.111H381.953C382.459 208.111 382.944 207.91 383.302 207.552C383.659 207.194 383.86 206.708 383.861 206.202V189.856C383.859 189.35 383.658 188.865 383.3 188.508C382.943 188.15 382.459 187.948 381.953 187.947Z" fill="#E6E6E6"/>
<path d="M381.953 215.814H365.622C365.116 215.814 364.631 216.015 364.274 216.373C363.916 216.731 363.715 217.217 363.715 217.723V234.069C363.714 234.32 363.763 234.568 363.859 234.8C363.954 235.032 364.095 235.243 364.272 235.42C364.449 235.597 364.66 235.738 364.891 235.834C365.123 235.93 365.371 235.979 365.622 235.978H381.953C382.459 235.978 382.944 235.777 383.302 235.419C383.659 235.061 383.86 234.575 383.861 234.069V217.723C383.859 217.217 383.658 216.733 383.3 216.375C382.943 216.017 382.459 215.815 381.953 215.814Z" fill="#18FBCC"/>
<path d="M381.953 243.681H365.622C365.371 243.681 365.123 243.73 364.891 243.825C364.66 243.921 364.449 244.062 364.272 244.239C364.095 244.417 363.954 244.627 363.859 244.859C363.763 245.091 363.714 245.339 363.715 245.59V261.936C363.714 262.187 363.763 262.435 363.859 262.667C363.954 262.899 364.095 263.11 364.272 263.287C364.449 263.465 364.66 263.605 364.891 263.701C365.123 263.797 365.371 263.846 365.622 263.845H381.953C382.459 263.845 382.944 263.644 383.302 263.286C383.659 262.928 383.86 262.442 383.861 261.936V245.59C383.86 245.084 383.659 244.599 383.302 244.241C382.944 243.883 382.459 243.681 381.953 243.681Z" fill="#18FBCC"/>
<path d="M416.259 132.213H399.928C399.422 132.213 398.937 132.414 398.579 132.772C398.221 133.13 398.02 133.615 398.02 134.122V150.475C398.02 150.725 398.07 150.973 398.166 151.204C398.262 151.435 398.403 151.645 398.58 151.822C398.757 151.998 398.967 152.138 399.198 152.234C399.43 152.329 399.678 152.377 399.928 152.377H416.259C416.763 152.377 417.248 152.177 417.605 151.82C417.963 151.464 418.164 150.98 418.166 150.475V134.122C418.165 133.616 417.963 133.131 417.606 132.773C417.248 132.416 416.764 132.214 416.259 132.213Z" fill="#18FBCC"/>
<path d="M416.259 160.08H399.928C399.422 160.08 398.937 160.281 398.579 160.639C398.221 160.997 398.02 161.483 398.02 161.989V178.342C398.02 178.592 398.07 178.84 398.166 179.071C398.262 179.302 398.403 179.512 398.58 179.689C398.757 179.866 398.967 180.005 399.198 180.101C399.43 180.196 399.678 180.245 399.928 180.244H416.259C416.763 180.244 417.248 180.044 417.605 179.688C417.963 179.331 418.164 178.847 418.166 178.342V161.989C418.165 161.483 417.963 160.998 417.606 160.641C417.248 160.283 416.764 160.081 416.259 160.08Z" fill="white"/>
<path d="M416.259 187.947H399.928C399.422 187.947 398.937 188.148 398.579 188.506C398.221 188.864 398.02 189.35 398.02 189.856V206.202C398.02 206.453 398.069 206.701 398.164 206.933C398.26 207.165 398.401 207.376 398.578 207.553C398.755 207.73 398.965 207.871 399.197 207.967C399.429 208.062 399.677 208.111 399.928 208.111H416.259C416.765 208.111 417.25 207.91 417.607 207.552C417.965 207.194 418.166 206.708 418.166 206.202V189.856C418.165 189.35 417.963 188.865 417.606 188.508C417.248 188.15 416.764 187.948 416.259 187.947Z" fill="white"/>
<path d="M416.259 215.814H399.928C399.422 215.814 398.937 216.015 398.579 216.373C398.221 216.731 398.02 217.217 398.02 217.723V234.069C398.02 234.32 398.069 234.568 398.164 234.8C398.26 235.032 398.401 235.243 398.578 235.42C398.755 235.597 398.965 235.738 399.197 235.834C399.429 235.93 399.677 235.979 399.928 235.978H416.259C416.765 235.978 417.25 235.777 417.607 235.419C417.965 235.061 418.166 234.575 418.166 234.069V217.723C418.165 217.217 417.963 216.733 417.606 216.375C417.248 216.017 416.764 215.815 416.259 215.814Z" fill="#E6E6E6"/>
<path d="M416.259 243.681H399.928C399.677 243.681 399.429 243.73 399.197 243.825C398.965 243.921 398.755 244.062 398.578 244.239C398.401 244.417 398.26 244.627 398.164 244.859C398.069 245.091 398.02 245.339 398.02 245.59V261.936C398.02 262.187 398.069 262.435 398.164 262.667C398.26 262.899 398.401 263.11 398.578 263.287C398.755 263.465 398.965 263.605 399.197 263.701C399.429 263.797 399.677 263.846 399.928 263.845H416.259C416.765 263.845 417.25 263.644 417.607 263.286C417.965 262.928 418.166 262.442 418.166 261.936V245.59C418.166 245.084 417.965 244.599 417.607 244.241C417.25 243.883 416.765 243.681 416.259 243.681Z" fill="#18FBCC"/>
<path d="M450.564 132.213H434.226C433.721 132.214 433.238 132.416 432.882 132.774C432.525 133.132 432.326 133.617 432.326 134.122V150.475C432.326 150.979 432.526 151.463 432.882 151.82C433.239 152.176 433.722 152.377 434.226 152.377H450.564C451.069 152.377 451.553 152.177 451.911 151.82C452.268 151.464 452.47 150.98 452.472 150.475V134.122C452.47 133.616 452.269 133.131 451.911 132.773C451.554 132.416 451.07 132.214 450.564 132.213Z" fill="white"/>
<path d="M450.564 160.08H434.226C433.721 160.081 433.238 160.283 432.882 160.641C432.525 160.999 432.325 161.484 432.326 161.989V178.342C432.326 178.846 432.526 179.33 432.882 179.687C433.239 180.043 433.722 180.244 434.226 180.244H450.564C451.069 180.244 451.553 180.044 451.911 179.688C452.268 179.331 452.47 178.847 452.472 178.342V161.989C452.47 161.483 452.269 160.998 451.912 160.641C451.554 160.283 451.07 160.081 450.564 160.08Z" fill="white"/>
<path d="M450.564 187.947H434.226C433.721 187.949 433.238 188.151 432.882 188.508C432.525 188.866 432.326 189.351 432.326 189.856V206.202C432.325 206.452 432.374 206.7 432.469 206.932C432.564 207.163 432.704 207.374 432.88 207.551C433.057 207.728 433.266 207.869 433.497 207.965C433.728 208.061 433.976 208.111 434.226 208.111H450.564C451.07 208.111 451.555 207.91 451.913 207.552C452.271 207.194 452.472 206.708 452.472 206.202V189.856C452.47 189.35 452.269 188.865 451.912 188.508C451.554 188.15 451.07 187.948 450.564 187.947Z" fill="white"/>
<path d="M450.564 215.814H434.226C433.721 215.816 433.238 216.018 432.882 216.376C432.525 216.733 432.326 217.218 432.326 217.723V234.069C432.325 234.319 432.374 234.567 432.469 234.799C432.564 235.03 432.704 235.241 432.88 235.418C433.057 235.595 433.266 235.736 433.497 235.832C433.728 235.928 433.976 235.978 434.226 235.978H450.564C451.07 235.978 451.555 235.777 451.913 235.419C452.271 235.061 452.472 234.575 452.472 234.069V217.723C452.47 217.217 452.269 216.733 451.912 216.375C451.554 216.017 451.07 215.815 450.564 215.814Z" fill="#18FBCC"/>
<path d="M450.564 243.681H434.226C433.976 243.681 433.728 243.731 433.497 243.827C433.266 243.923 433.057 244.064 432.88 244.241C432.704 244.419 432.564 244.629 432.469 244.861C432.374 245.092 432.325 245.34 432.326 245.59V261.936C432.325 262.186 432.374 262.434 432.469 262.666C432.564 262.897 432.704 263.108 432.88 263.285C433.057 263.462 433.266 263.603 433.497 263.699C433.728 263.795 433.976 263.845 434.226 263.845H450.564C451.07 263.845 451.555 263.644 451.913 263.286C452.271 262.928 452.472 262.442 452.472 261.936V245.59C452.472 245.084 452.271 244.599 451.913 244.241C451.555 243.883 451.07 243.681 450.564 243.681Z" fill="#E6E6E6"/>
<path d="M484.87 132.213H468.532C468.027 132.214 467.543 132.416 467.187 132.774C466.831 133.132 466.631 133.617 466.631 134.122V150.475C466.631 150.979 466.832 151.463 467.188 151.82C467.544 152.176 468.028 152.377 468.532 152.377H484.87C485.375 152.377 485.859 152.177 486.216 151.82C486.574 151.464 486.776 150.98 486.778 150.475V134.122C486.776 133.616 486.575 133.131 486.217 132.773C485.86 132.416 485.375 132.214 484.87 132.213Z" fill="white"/>
<path d="M484.87 160.08H468.532C468.027 160.081 467.543 160.283 467.187 160.641C466.831 160.999 466.631 161.484 466.631 161.989V178.342C466.631 178.846 466.832 179.33 467.188 179.687C467.544 180.043 468.028 180.244 468.532 180.244H484.87C485.375 180.244 485.859 180.044 486.216 179.688C486.574 179.331 486.776 178.847 486.778 178.342V161.989C486.776 161.483 486.575 160.998 486.217 160.641C485.86 160.283 485.375 160.081 484.87 160.08Z" fill="white"/>
<path d="M484.87 187.947H468.532C468.027 187.949 467.543 188.151 467.187 188.508C466.831 188.866 466.631 189.351 466.631 189.856V206.202C466.631 206.452 466.679 206.7 466.774 206.932C466.87 207.163 467.009 207.374 467.186 207.551C467.362 207.728 467.572 207.869 467.803 207.965C468.034 208.061 468.281 208.111 468.532 208.111H484.87C485.376 208.111 485.861 207.91 486.219 207.552C486.576 207.194 486.777 206.708 486.778 206.202V189.856C486.776 189.35 486.575 188.865 486.217 188.508C485.86 188.15 485.376 187.948 484.87 187.947Z" fill="#18FBCC"/>
<path d="M484.87 215.814H468.532C468.027 215.816 467.543 216.018 467.187 216.376C466.831 216.733 466.631 217.218 466.631 217.723V234.069C466.631 234.319 466.679 234.567 466.774 234.799C466.87 235.03 467.009 235.241 467.186 235.418C467.362 235.595 467.572 235.736 467.803 235.832C468.034 235.928 468.281 235.978 468.532 235.978H484.87C485.376 235.978 485.861 235.777 486.219 235.419C486.576 235.061 486.777 234.575 486.778 234.069V217.723C486.776 217.217 486.575 216.733 486.217 216.375C485.86 216.017 485.375 215.815 484.87 215.814Z" fill="#E6E6E6"/>
<path d="M484.87 243.681H468.532C468.281 243.681 468.034 243.731 467.803 243.827C467.572 243.923 467.362 244.064 467.186 244.241C467.009 244.419 466.87 244.629 466.774 244.861C466.679 245.092 466.631 245.34 466.631 245.59V261.936C466.631 262.186 466.679 262.434 466.774 262.666C466.87 262.897 467.009 263.108 467.186 263.285C467.362 263.462 467.572 263.603 467.803 263.699C468.034 263.795 468.281 263.845 468.532 263.845H484.87C485.376 263.845 485.861 263.644 486.219 263.286C486.576 262.928 486.777 262.442 486.778 261.936V245.59C486.777 245.084 486.576 244.599 486.219 244.241C485.861 243.883 485.376 243.681 484.87 243.681Z" fill="white"/>
<path d="M519.176 132.213H502.837C502.333 132.214 501.849 132.416 501.493 132.774C501.137 133.132 500.937 133.617 500.937 134.122V150.475C500.937 150.979 501.137 151.463 501.494 151.82C501.85 152.176 502.333 152.377 502.837 152.377H519.176C519.68 152.377 520.164 152.177 520.522 151.82C520.88 151.464 521.081 150.98 521.083 150.475V134.122C521.082 133.616 520.88 133.131 520.523 132.773C520.165 132.416 519.681 132.214 519.176 132.213Z" fill="#18FBCC"/>
<path d="M519.176 160.08H502.837C502.332 160.081 501.849 160.283 501.493 160.641C501.137 160.999 500.937 161.484 500.937 161.989V178.342C500.937 178.846 501.137 179.33 501.494 179.687C501.85 180.043 502.333 180.244 502.837 180.244H519.176C519.68 180.244 520.164 180.044 520.522 179.688C520.88 179.331 521.081 178.847 521.083 178.342V161.989C521.082 161.483 520.88 160.998 520.523 160.641C520.165 160.283 519.681 160.081 519.176 160.08Z" fill="#18FBCC"/>
<path d="M519.176 187.947H502.837C502.333 187.949 501.849 188.151 501.493 188.508C501.137 188.866 500.937 189.351 500.937 189.856V206.202C500.936 206.452 500.985 206.7 501.08 206.932C501.175 207.163 501.315 207.374 501.492 207.551C501.668 207.728 501.878 207.869 502.109 207.965C502.34 208.061 502.587 208.111 502.837 208.111H519.176C519.681 208.111 520.166 207.91 520.524 207.552C520.882 207.194 521.083 206.708 521.083 206.202V189.856C521.082 189.35 520.88 188.865 520.523 188.508C520.165 188.15 519.681 187.948 519.176 187.947Z" fill="#E6E6E6"/>
<path d="M519.176 215.814H502.837C502.333 215.816 501.849 216.018 501.493 216.376C501.137 216.733 500.937 217.218 500.937 217.723V234.069C500.936 234.319 500.985 234.567 501.08 234.799C501.175 235.03 501.315 235.241 501.492 235.418C501.668 235.595 501.878 235.736 502.109 235.832C502.34 235.928 502.587 235.978 502.837 235.978H519.176C519.681 235.978 520.166 235.777 520.524 235.419C520.882 235.061 521.083 234.575 521.083 234.069V217.723C521.082 217.217 520.88 216.733 520.523 216.375C520.165 216.017 519.681 215.815 519.176 215.814Z" fill="white"/>
<path d="M519.176 243.681H502.837C502.587 243.681 502.34 243.731 502.109 243.827C501.878 243.923 501.668 244.064 501.492 244.241C501.315 244.419 501.175 244.629 501.08 244.861C500.985 245.092 500.936 245.34 500.937 245.59V261.936C500.936 262.186 500.985 262.434 501.08 262.666C501.175 262.897 501.315 263.108 501.492 263.285C501.668 263.462 501.878 263.603 502.109 263.699C502.34 263.795 502.587 263.845 502.837 263.845H519.176C519.681 263.845 520.166 263.644 520.524 263.286C520.882 262.928 521.083 262.442 521.083 261.936V245.59C521.083 245.084 520.882 244.599 520.524 244.241C520.166 243.883 519.681 243.681 519.176 243.681Z" fill="#18FBCC"/>
<path d="M553.481 132.213H537.143C536.638 132.214 536.155 132.416 535.799 132.774C535.442 133.132 535.242 133.617 535.243 134.122V150.475C535.243 150.979 535.443 151.463 535.799 151.82C536.156 152.176 536.639 152.377 537.143 152.377H553.481C553.986 152.377 554.47 152.177 554.828 151.82C555.185 151.464 555.387 150.98 555.389 150.475V134.122C555.387 133.616 555.186 133.131 554.828 132.773C554.471 132.416 553.987 132.214 553.481 132.213Z" fill="#18FBCC"/>
<path d="M553.481 160.08H537.143C536.638 160.081 536.155 160.283 535.798 160.641C535.442 160.999 535.242 161.484 535.243 161.989V178.342C535.243 178.846 535.443 179.33 535.799 179.687C536.156 180.043 536.639 180.244 537.143 180.244H553.481C553.986 180.244 554.47 180.044 554.828 179.688C555.185 179.331 555.387 178.847 555.389 178.342V161.989C555.387 161.483 555.186 160.998 554.828 160.641C554.471 160.283 553.987 160.081 553.481 160.08Z" fill="#18FBCC"/>
<path d="M553.481 187.947H537.143C536.638 187.949 536.155 188.151 535.799 188.508C535.442 188.866 535.242 189.351 535.243 189.856V206.202C535.242 206.452 535.291 206.7 535.386 206.932C535.481 207.163 535.621 207.374 535.797 207.551C535.974 207.728 536.183 207.869 536.414 207.965C536.645 208.061 536.893 208.111 537.143 208.111H553.481C553.987 208.111 554.472 207.91 554.83 207.552C555.187 207.194 555.388 206.708 555.389 206.202V189.856C555.387 189.35 555.186 188.865 554.828 188.508C554.471 188.15 553.987 187.948 553.481 187.947Z" fill="#E6E6E6"/>
<path d="M553.481 215.814H537.143C536.638 215.816 536.155 216.018 535.799 216.376C535.442 216.733 535.242 217.218 535.243 217.723V234.069C535.242 234.319 535.291 234.567 535.386 234.799C535.481 235.03 535.621 235.241 535.797 235.418C535.974 235.595 536.183 235.736 536.414 235.832C536.645 235.928 536.893 235.978 537.143 235.978H553.481C553.987 235.978 554.472 235.777 554.83 235.419C555.187 235.061 555.388 234.575 555.389 234.069V217.723C555.387 217.217 555.186 216.733 554.828 216.375C554.471 216.017 553.987 215.815 553.481 215.814Z" fill="#18FBCC"/>
<path d="M553.481 243.681H537.143C536.893 243.681 536.645 243.731 536.414 243.827C536.183 243.923 535.974 244.064 535.797 244.241C535.621 244.419 535.481 244.629 535.386 244.861C535.291 245.092 535.242 245.34 535.243 245.59V261.936C535.242 262.186 535.291 262.434 535.386 262.666C535.481 262.897 535.621 263.108 535.797 263.285C535.974 263.462 536.183 263.603 536.414 263.699C536.645 263.795 536.893 263.845 537.143 263.845H553.481C553.987 263.845 554.472 263.644 554.83 263.286C555.187 262.928 555.388 262.442 555.389 261.936V245.59C555.388 245.084 555.187 244.599 554.83 244.241C554.472 243.883 553.987 243.681 553.481 243.681Z" fill="#18FBCC"/>
<path d="M587.787 132.213H571.448C570.944 132.214 570.46 132.416 570.104 132.774C569.748 133.132 569.548 133.617 569.548 134.122V150.475C569.548 150.979 569.749 151.463 570.105 151.82C570.461 152.176 570.944 152.377 571.448 152.377H587.787C588.292 152.377 588.776 152.177 589.133 151.82C589.491 151.464 589.693 150.98 589.694 150.475V134.122C589.693 133.616 589.491 133.131 589.134 132.773C588.777 132.416 588.292 132.214 587.787 132.213Z" fill="#E6E6E6"/>
<path d="M587.787 160.08H571.448C570.944 160.081 570.46 160.283 570.104 160.641C569.748 160.999 569.548 161.484 569.548 161.989V178.342C569.548 178.846 569.749 179.33 570.105 179.687C570.461 180.043 570.944 180.244 571.448 180.244H587.787C588.292 180.244 588.776 180.044 589.133 179.688C589.491 179.331 589.693 178.847 589.694 178.342V161.989C589.693 161.483 589.491 160.998 589.134 160.641C588.777 160.283 588.292 160.081 587.787 160.08Z" fill="#18FBCC"/>
<path d="M587.787 187.947H571.448C570.944 187.949 570.46 188.151 570.104 188.508C569.748 188.866 569.548 189.351 569.548 189.856V206.202C569.548 206.452 569.596 206.7 569.691 206.932C569.786 207.163 569.926 207.374 570.103 207.551C570.279 207.728 570.489 207.869 570.72 207.965C570.951 208.061 571.198 208.111 571.448 208.111H587.787C588.293 208.111 588.778 207.91 589.135 207.552C589.493 207.194 589.694 206.708 589.694 206.202V189.856C589.693 189.35 589.491 188.865 589.134 188.508C588.777 188.15 588.292 187.948 587.787 187.947Z" fill="#18FBCC"/>
<path d="M587.787 215.814H571.448C570.944 215.816 570.46 216.018 570.104 216.376C569.748 216.733 569.548 217.218 569.548 217.723V234.069C569.548 234.319 569.596 234.567 569.691 234.799C569.786 235.03 569.926 235.241 570.103 235.418C570.279 235.595 570.489 235.736 570.72 235.832C570.951 235.928 571.198 235.978 571.448 235.978H587.787C588.293 235.978 588.778 235.777 589.135 235.419C589.493 235.061 589.694 234.575 589.694 234.069V217.723C589.693 217.217 589.491 216.733 589.134 216.375C588.777 216.017 588.292 215.815 587.787 215.814Z" fill="#18FBCC"/>
<path d="M587.787 243.681H571.448C571.198 243.681 570.951 243.731 570.72 243.827C570.489 243.923 570.279 244.064 570.103 244.241C569.926 244.419 569.786 244.629 569.691 244.861C569.596 245.092 569.548 245.34 569.548 245.59V261.936C569.548 262.186 569.596 262.434 569.691 262.666C569.786 262.897 569.926 263.108 570.103 263.285C570.279 263.462 570.489 263.603 570.72 263.699C570.951 263.795 571.198 263.845 571.448 263.845H587.787C588.293 263.845 588.778 263.644 589.135 263.286C589.493 262.928 589.694 262.442 589.694 261.936V245.59C589.694 245.084 589.493 244.599 589.135 244.241C588.778 243.883 588.293 243.681 587.787 243.681Z" fill="#E6E6E6"/>
<path d="M622.092 132.213H605.754C605.249 132.214 604.766 132.416 604.41 132.774C604.054 133.132 603.854 133.617 603.854 134.122V150.475C603.854 150.979 604.054 151.463 604.41 151.82C604.767 152.176 605.25 152.377 605.754 152.377H622.092C622.597 152.377 623.081 152.177 623.439 151.82C623.796 151.464 623.998 150.98 624 150.475V134.122C623.999 133.616 623.797 133.131 623.44 132.773C623.082 132.416 622.598 132.214 622.092 132.213Z" fill="#E6E6E6"/>
<path d="M622.092 160.08H605.754C605.249 160.081 604.766 160.283 604.41 160.641C604.053 160.999 603.854 161.484 603.854 161.989V178.342C603.854 178.846 604.054 179.33 604.41 179.687C604.767 180.043 605.25 180.244 605.754 180.244H622.092C622.597 180.244 623.081 180.044 623.439 179.688C623.796 179.331 623.998 178.847 624 178.342V161.989C623.999 161.483 623.797 160.998 623.44 160.641C623.082 160.283 622.598 160.081 622.092 160.08Z" fill="#E6E6E6"/>
<path d="M622.092 187.947H605.754C605.249 187.949 604.766 188.151 604.41 188.508C604.054 188.866 603.854 189.351 603.854 189.856V206.202C603.853 206.452 603.902 206.7 603.997 206.932C604.092 207.163 604.232 207.374 604.408 207.551C604.585 207.728 604.795 207.869 605.025 207.965C605.256 208.061 605.504 208.111 605.754 208.111H622.092C622.598 208.111 623.083 207.91 623.441 207.552C623.799 207.194 624 206.708 624 206.202V189.856C623.999 189.35 623.797 188.865 623.44 188.508C623.082 188.15 622.598 187.948 622.092 187.947Z" fill="#18FBCC"/>
<path d="M622.092 215.814H605.754C605.249 215.816 604.766 216.018 604.41 216.376C604.054 216.733 603.854 217.218 603.854 217.723V234.069C603.853 234.319 603.902 234.567 603.997 234.799C604.092 235.03 604.232 235.241 604.408 235.418C604.585 235.595 604.795 235.736 605.025 235.832C605.256 235.928 605.504 235.978 605.754 235.978H622.092C622.598 235.978 623.083 235.777 623.441 235.419C623.799 235.061 624 234.575 624 234.069V217.723C623.999 217.217 623.797 216.733 623.44 216.375C623.082 216.017 622.598 215.815 622.092 215.814Z" fill="#E6E6E6"/>
<path d="M622.092 243.681H605.754C605.504 243.681 605.256 243.731 605.025 243.827C604.795 243.923 604.585 244.064 604.408 244.241C604.232 244.419 604.092 244.629 603.997 244.861C603.902 245.092 603.853 245.34 603.854 245.59V261.936C603.853 262.186 603.902 262.434 603.997 262.666C604.092 262.897 604.232 263.108 604.408 263.285C604.585 263.462 604.795 263.603 605.025 263.699C605.256 263.795 605.504 263.845 605.754 263.845H622.092C622.598 263.845 623.083 263.644 623.441 263.286C623.799 262.928 624 262.442 624 261.936V245.59C624 245.084 623.799 244.599 623.441 244.241C623.083 243.883 622.598 243.681 622.092 243.681Z" fill="#E6E6E6"/>
<path d="M246.578 484.683H246.122L246.512 484.632L246.578 484.683Z" fill="#2F2E41"/>
<path d="M207.488 179.947C235.171 179.947 257.612 157.485 257.612 129.777C257.612 102.069 235.171 79.6075 207.488 79.6075C179.805 79.6075 157.363 102.069 157.363 129.777C157.363 157.485 179.805 179.947 207.488 179.947Z" fill="#FFB6B6"/>
<path d="M251.383 92.9935C251.383 92.9935 264.493 67.9088 235.651 65.6283C235.651 65.6283 211.063 43.3035 186 61.547C186 61.547 172.33 61.547 164.855 77.0305C164.855 77.0305 154.103 72.9491 151.74 83.8717C151.74 83.8717 143.873 106.676 151.74 127.2C159.608 147.724 162.221 150.004 162.221 150.004C162.221 150.004 149.293 106.975 180.76 104.694C212.227 102.414 247.439 82.7316 250.062 107.816C252.684 132.901 256.631 139.082 256.631 139.082C256.631 139.082 281.538 103.256 251.383 92.9935Z" fill="#2F2E41"/>
<path d="M337.149 253.418L336.987 254.27L335.175 263.845L322.652 330.08L321.911 333.979L320.356 342.226L318.228 353.475L313.511 378.405L312.161 385.55L311.654 388.23L311.478 389.17L310.077 396.565L309.652 398.797L306.233 424.153L303.247 446.248L313.239 456.25L307.282 462.212L303.372 484.631L303.379 484.682H143.787C137.331 480.497 130.968 476.181 124.698 471.736L126.011 461.897C126.011 461.897 130.53 444.324 128.63 442.224C126.737 440.124 122.585 436.372 122.585 436.372L127.816 424.153L128.542 422.457L127.324 397.174L127.295 396.565L126.891 388.23L126.84 387.158L126.759 385.55L125.211 353.475L125.182 352.947L124.712 343.224L124.272 333.979L124.081 330.08L122.196 291.066L120.919 264.572L119.804 241.508L124.287 239.988L172.231 223.678L192.091 197.838L233.425 198.146L253.659 198.301L287.422 229.641L295.103 233.313L295.162 233.342L300.672 235.978L314.64 242.653L329.409 249.717L336.988 253.337L337.149 253.418Z" fill="#CACACA"/>
<path d="M197.433 409.416C194.404 410.591 191.154 411.086 187.913 410.868C184.672 410.65 181.519 409.722 178.674 408.152C175.83 406.582 173.364 404.406 171.451 401.779C169.537 399.152 168.223 396.137 167.599 392.946L89.4222 381.844L116.599 351.075L186.671 366.335C192.096 365.642 197.586 366.965 202.102 370.053C206.617 373.142 209.844 377.781 211.17 383.091C212.497 388.401 211.831 394.014 209.299 398.866C206.767 403.718 202.545 407.472 197.433 409.416V409.416Z" fill="#FFB6B6"/>
<path d="M162.576 353.475C161.128 351.638 159.078 350.371 156.788 349.899L124.712 343.224L121.418 342.542C119.504 342.142 117.695 341.342 116.111 340.194C114.527 339.046 113.203 337.577 112.225 335.881C111.212 334.102 110.598 332.122 110.428 330.08C110.275 328.224 110.497 326.356 111.081 324.588L122.196 291.066L129.408 269.316C130.282 266.693 130.797 263.963 130.941 261.202C131.343 253.56 128.98 246.029 124.287 239.988C120.16 234.678 114.437 230.838 107.962 229.034C101.487 227.23 94.6042 227.559 88.3304 229.972C88.1469 230.038 87.9562 230.111 87.7728 230.184C83.2735 231.983 79.2537 234.803 76.031 238.424C72.8083 242.045 70.4711 246.366 69.204 251.046L61.3686 279.574L45.2062 338.385C43.5883 344.278 43.2614 350.45 44.248 356.481C45.2346 362.511 47.5113 368.257 50.9223 373.326C54.3334 378.394 58.7982 382.664 64.0112 385.845C69.2242 389.026 75.0623 391.042 81.1259 391.755L127.324 397.174L148.703 399.686C151.175 399.983 153.668 399.337 155.686 397.877C157.703 396.417 159.098 394.249 159.59 391.807C159.625 391.674 159.652 391.539 159.671 391.403L160.184 388.23L164.535 361.516L164.579 361.244C164.806 359.881 164.745 358.486 164.4 357.148C164.055 355.81 163.433 354.559 162.576 353.475Z" fill="#CACACA"/>
<path d="M247.228 410.273C250.393 411.008 253.679 411.04 256.857 410.366C260.035 409.692 263.027 408.329 265.621 406.373C268.216 404.417 270.35 401.916 271.875 399.045C273.399 396.173 274.275 393.003 274.443 389.756L350.275 367.731L319.035 341.105L251.813 366.102C246.344 366.182 241.095 368.267 237.06 371.962C233.025 375.657 230.484 380.705 229.919 386.149C229.354 391.594 230.804 397.057 233.994 401.503C237.184 405.949 241.893 409.069 247.228 410.273V410.273Z" fill="#FFB6B6"/>
<path d="M387.925 318.463L351.859 235.383C348.909 228.563 343.64 223.008 336.987 219.706C334.931 218.693 332.771 217.905 330.546 217.356C330.201 217.268 329.856 217.187 329.512 217.121C324.792 216.09 319.898 216.181 315.22 217.385C310.944 218.485 306.948 220.474 303.492 223.224C300.035 225.973 297.197 229.421 295.162 233.342C295.14 233.375 295.12 233.409 295.103 233.445C292.83 237.847 291.621 242.721 291.574 247.676C291.527 252.631 292.643 257.528 294.832 261.973L295.279 262.869L320.766 314.102C321.637 315.854 322.127 317.77 322.205 319.725C322.284 321.68 321.948 323.629 321.221 325.445C320.493 327.261 319.39 328.903 317.985 330.262C316.579 331.622 314.901 332.668 313.063 333.333L311.273 333.979L279.08 345.618C276.665 346.481 274.678 348.248 273.538 350.548C272.398 352.848 272.194 355.5 272.969 357.947L273.05 358.204L282.074 387.107C282.118 387.239 282.161 387.371 282.213 387.503C282.292 387.753 282.39 387.996 282.506 388.23C283.465 390.383 285.161 392.123 287.287 393.137C289.413 394.15 291.831 394.371 294.105 393.76L311.478 389.17L315.022 388.23L359.885 376.371C365.788 374.81 371.284 371.99 375.997 368.106C380.71 364.221 384.529 359.362 387.192 353.863C389.855 348.364 391.299 342.353 391.426 336.243C391.552 330.133 390.358 324.068 387.925 318.463L387.925 318.463Z" fill="#CACACA"/>
<path d="M32.9396 388.23C43.3358 400.922 54.5478 412.922 66.5042 424.153H398.093C401.288 424.158 404.35 425.431 406.609 427.693C408.867 429.954 410.137 433.02 410.14 436.218L410.617 520.318C431.016 510.938 450.119 498.96 467.453 484.682C472.266 480.724 476.929 476.595 481.444 472.294C484.4 469.489 487.286 466.616 490.101 463.674C511.204 441.67 528.292 416.136 540.591 388.23H32.9396Z" fill="#3F3D56"/>
<path d="M490.101 463.674C487.291 466.618 484.405 469.492 481.444 472.294H410.859V463.674H490.101Z" fill="white"/>
<path d="M336.489 187.947C336.14 187.303 335.624 186.765 334.995 186.39C334.366 186.015 333.648 185.817 332.916 185.817H92.3948C91.3165 185.82 90.2832 186.251 89.5214 187.015C88.7595 187.778 88.3313 188.813 88.3304 189.893V333.98H336.987V189.893C336.991 189.212 336.819 188.542 336.489 187.947Z" fill="#3F3D56"/>
<path d="M88.1126 330.078V347.859C88.1126 348.596 88.2576 349.326 88.5395 350.007C88.8213 350.688 89.2343 351.307 89.7551 351.828C90.2758 352.349 90.8941 352.763 91.5744 353.045C92.2548 353.327 92.9841 353.472 93.7205 353.472H185.498V388.562H184.279C184.183 388.562 184.089 388.581 184 388.618C183.912 388.654 183.831 388.708 183.764 388.776C183.696 388.843 183.642 388.924 183.606 389.012C183.569 389.101 183.55 389.196 183.55 389.291V391.732C183.55 391.828 183.569 391.923 183.606 392.011C183.642 392.1 183.696 392.18 183.764 392.248C183.831 392.315 183.912 392.369 184 392.406C184.089 392.442 184.183 392.461 184.279 392.461H241.253C241.349 392.461 241.444 392.442 241.532 392.406C241.62 392.369 241.701 392.315 241.768 392.248C241.836 392.18 241.89 392.1 241.926 392.011C241.963 391.923 241.982 391.828 241.982 391.732V389.291C241.982 389.196 241.963 389.101 241.926 389.012C241.89 388.924 241.836 388.843 241.768 388.776C241.701 388.708 241.62 388.654 241.532 388.618C241.444 388.581 241.349 388.562 241.253 388.562H240.034V353.472H331.812C332.548 353.472 333.277 353.327 333.958 353.045C334.638 352.763 335.256 352.349 335.777 351.828C336.298 351.307 336.711 350.688 336.993 350.007C337.275 349.326 337.42 348.596 337.42 347.859V330.078H88.1126Z" fill="#3F3D56"/>
<path d="M209.754 279.046C222.439 279.046 232.722 268.754 232.722 256.057C232.722 243.361 222.439 233.069 209.754 233.069C197.069 233.069 186.786 243.361 186.786 256.057C186.786 268.754 197.069 279.046 209.754 279.046Z" fill="#18FBCC"/>
<path d="M268.274 127.036H264.605C264.605 99.2787 237.159 81.0898 209.471 81.0751C205.444 81.0633 201.426 81.4544 197.476 82.2426C193.03 83.1312 188.415 84.1959 183.881 85.5838C166.002 91.0691 149.422 101.673 149.422 127.036C149.418 131.961 150.044 136.867 151.285 141.634L147.734 142.559C146.417 137.49 145.752 132.273 145.753 127.036C145.753 104.874 154.843 89.6518 170.544 80.5757C178.797 75.8027 188.87 72.726 200.411 71.228C205.213 70.5885 210.068 70.4409 214.9 70.7874C246.741 73.0784 268.274 97.5163 268.274 127.036Z" fill="#18FBCC"/>
<path d="M274.385 129.07L272.94 118.378C272.583 115.678 271.284 113.191 269.271 111.358C267.979 110.163 266.433 109.277 264.749 108.769C263.065 108.26 261.287 108.141 259.55 108.421L257.254 108.737C256.626 108.819 256.02 109.026 255.472 109.345C254.924 109.664 254.445 110.089 254.063 110.594C253.677 111.098 253.395 111.674 253.232 112.288C253.07 112.901 253.03 113.541 253.116 114.17L256.454 138.799C256.592 139.803 257.041 140.738 257.739 141.472C258.437 142.206 259.348 142.702 260.343 142.889C260.637 142.949 260.937 142.978 261.238 142.978C261.454 142.978 261.669 142.963 261.883 142.933L264.451 142.588C266.017 142.38 267.523 141.854 268.878 141.042C270.233 140.23 271.408 139.15 272.331 137.867C272.529 137.588 272.719 137.301 272.896 137.008C274.271 134.605 274.795 131.808 274.385 129.07Z" fill="#18FBCC"/>
<path d="M255.772 109.185C255.099 109.512 254.513 109.995 254.063 110.594C253.677 111.098 253.395 111.674 253.232 112.288C253.07 112.902 253.03 113.541 253.116 114.171L256.454 138.799C256.592 139.803 257.041 140.738 257.739 141.472C258.437 142.206 259.348 142.702 260.343 142.889L255.772 109.185Z" fill="white"/>
<path d="M274.385 129.07L272.94 118.378C272.583 115.678 271.284 113.191 269.271 111.358L272.595 135.862C272.645 136.255 272.746 136.641 272.896 137.008C274.271 134.605 274.795 131.808 274.385 129.07Z" fill="#3F3D56"/>
<path d="M262.962 136.773C263.966 136.637 264.47 134.246 264.089 131.433C263.708 128.62 262.585 126.45 261.581 126.586C260.578 126.722 260.073 129.113 260.454 131.926C260.835 134.739 261.958 136.909 262.962 136.773Z" fill="#3F3D56"/>
<path d="M260.761 123.555C261.765 123.419 262.269 121.028 261.888 118.215C261.507 115.402 260.384 113.232 259.38 113.368C258.377 113.505 257.872 115.896 258.253 118.709C258.635 121.522 259.757 123.692 260.761 123.555Z" fill="#3F3D56"/>
<path d="M274.701 128.696C275.704 128.559 276.209 126.168 275.828 123.355C275.446 120.542 274.324 118.372 273.32 118.509C272.316 118.645 271.811 121.036 272.193 123.849C272.574 126.662 273.697 128.832 274.701 128.696Z" fill="#3F3D56"/>
<path d="M209.471 81.075C205.444 81.0632 201.426 81.4544 197.476 82.2426C193.03 83.1311 188.415 84.1959 183.881 85.5837C176.802 85.2386 171.593 83.4028 170.544 80.5757C178.797 75.8027 188.87 72.7259 200.411 71.2279C205.213 70.5884 210.068 70.4408 214.9 70.7873C215.412 71.0875 215.854 71.4926 216.198 71.9761C216.542 72.4595 216.78 73.0104 216.896 73.5924C217.241 76.1478 214.328 78.8647 209.471 81.075Z" fill="#3F3D56"/>
<path d="M162.635 152.516L156.986 129.011C156.784 128.163 156.337 127.393 155.7 126.799C155.063 126.205 154.265 125.812 153.405 125.67C153.163 125.632 152.918 125.612 152.672 125.611C152.326 125.612 151.981 125.654 151.645 125.736L149.458 126.265C146.644 126.946 144.214 128.717 142.702 131.19C141.19 133.662 140.721 136.634 141.396 139.453L143.927 149.998C144.505 152.48 145.881 154.704 147.844 156.327C148.163 156.584 148.496 156.822 148.842 157.04C150.072 157.811 151.444 158.328 152.876 158.56C154.309 158.792 155.774 158.735 157.184 158.391L159.363 157.862C159.939 157.728 160.481 157.475 160.955 157.12C161.659 156.606 162.195 155.894 162.494 155.074C162.794 154.254 162.843 153.364 162.635 152.516Z" fill="#18FBCC"/>
<path d="M150.792 148.143C151.777 147.906 152.037 145.476 151.374 142.716C150.71 139.956 149.374 137.911 148.389 138.148C147.404 138.385 147.144 140.815 147.807 143.575C148.471 146.335 149.807 148.38 150.792 148.143Z" fill="#3F3D56"/>
<path d="M143.455 150.346C144.44 150.109 144.701 147.679 144.037 144.919C143.374 142.159 142.037 140.114 141.052 140.351C140.068 140.588 139.807 143.018 140.471 145.778C141.134 148.538 142.471 150.583 143.455 150.346Z" fill="#3F3D56"/>
<path d="M162.994 152.428L157.345 128.923C157.125 128.005 156.639 127.173 155.949 126.53C155.259 125.888 154.394 125.463 153.464 125.31L161.175 157.414C161.936 156.856 162.516 156.084 162.839 155.197C163.163 154.31 163.217 153.346 162.994 152.428Z" fill="white"/>
<path d="M142.672 134.797C142.516 134.144 142.224 133.531 141.814 132.998C141.02 135.057 140.874 137.309 141.396 139.453L143.927 149.998C144.505 152.48 145.881 154.704 147.844 156.327L142.672 134.797Z" fill="#3F3D56"/>
</g>
<g clip-path="url(#clip1_16_626)">
<path d="M463.582 274.924C463.634 318.584 446.779 360.564 416.559 392.04C414.737 393.95 412.866 395.814 410.945 397.631C408.02 400.418 404.996 403.096 401.874 405.666C372.667 429.758 336.205 443.297 298.37 444.097C297.11 444.126 295.844 444.14 294.574 444.14C264.4 444.14 226.449 428.004 192.008 405.666C189.159 403.818 186.335 401.927 183.536 399.994C182.228 399.098 180.926 398.19 179.63 397.27C166.347 387.879 153.738 377.566 141.898 366.407C134.145 359.122 126.875 351.339 120.134 343.107C93.671 310.425 87.8342 280.977 125.562 274.924C130.029 274.209 134.364 273.446 138.568 272.633C144.657 271.461 150.484 270.196 156.05 268.837C163.547 267.013 170.59 265.035 177.181 262.903C179.397 262.188 181.563 261.459 183.679 260.716C214.951 249.719 235.882 235.379 250.129 219.819C252.546 217.185 254.774 214.519 256.813 211.822C259.933 207.716 262.767 203.401 265.295 198.905C268.784 192.66 271.715 186.117 274.053 179.354L274.181 178.983C285.517 146.244 282.068 115.876 294.574 105.713C348.034 62.2619 414.589 124.14 445.829 197.11C447.403 200.787 448.884 204.486 450.272 208.207C450.895 209.869 451.496 211.535 452.075 213.203C453.597 217.552 454.978 221.911 456.218 226.282C456.694 227.949 457.147 229.614 457.578 231.278C458.04 233.073 458.482 234.864 458.891 236.655C461.931 249.767 463.582 262.698 463.582 274.924Z" fill="#F2F2F2"/>
<path d="M298.37 444.097C297.11 444.126 295.844 444.14 294.574 444.14C264.4 444.14 226.449 428.004 192.008 405.666C189.159 403.818 186.335 401.928 183.536 399.994L185.991 385.039L260.3 375.161L297.595 403.714L298.37 444.097Z" fill="#2F2E41"/>
<path d="M301.948 177.054H291.359C291.031 177.054 290.716 177.185 290.484 177.417C290.252 177.649 290.122 177.964 290.122 178.292V188.899C290.122 189.061 290.154 189.222 290.216 189.372C290.279 189.522 290.37 189.658 290.485 189.772C290.6 189.887 290.736 189.978 290.886 190.04C291.036 190.101 291.196 190.133 291.359 190.132H301.948C302.275 190.133 302.589 190.003 302.821 189.772C303.053 189.54 303.183 189.226 303.184 188.899V178.292C303.184 177.964 303.053 177.65 302.821 177.418C302.589 177.186 302.275 177.055 301.948 177.054Z" fill="white"/>
<path d="M301.948 195.129H291.359C291.031 195.129 290.716 195.259 290.484 195.491C290.252 195.724 290.122 196.039 290.122 196.367V206.974C290.122 207.136 290.154 207.297 290.216 207.447C290.279 207.596 290.37 207.733 290.485 207.847C290.6 207.962 290.736 208.052 290.886 208.114C291.036 208.176 291.196 208.208 291.359 208.207H301.948C302.275 208.207 302.589 208.077 302.821 207.846C303.053 207.615 303.183 207.301 303.184 206.974V196.367C303.184 196.039 303.053 195.724 302.821 195.492C302.589 195.26 302.275 195.13 301.948 195.129Z" fill="#E6E6E6"/>
<path d="M301.948 213.203H291.359C291.031 213.203 290.716 213.334 290.484 213.566C290.252 213.798 290.122 214.113 290.122 214.442V225.044C290.121 225.206 290.153 225.367 290.215 225.518C290.277 225.668 290.368 225.805 290.483 225.92C290.598 226.035 290.735 226.126 290.885 226.188C291.035 226.25 291.196 226.282 291.359 226.282H301.948C302.276 226.282 302.59 226.151 302.822 225.919C303.054 225.687 303.184 225.372 303.184 225.044V214.442C303.184 214.113 303.053 213.799 302.821 213.567C302.589 213.335 302.275 213.204 301.948 213.203Z" fill="#E6E6E6"/>
<path d="M303.165 232.297C303.113 232.012 302.962 231.754 302.74 231.568C302.518 231.382 302.237 231.279 301.948 231.278H291.359C291.031 231.278 290.716 231.409 290.484 231.641C290.252 231.873 290.122 232.188 290.122 232.516V243.118C290.121 243.281 290.153 243.442 290.215 243.592C290.277 243.743 290.368 243.879 290.483 243.994C290.598 244.11 290.735 244.201 290.885 244.263C291.035 244.325 291.196 244.357 291.359 244.356H301.948C302.276 244.356 302.59 244.226 302.822 243.994C303.054 243.761 303.184 243.447 303.185 243.118V232.516C303.185 232.443 303.179 232.369 303.165 232.297Z" fill="#E6E6E6"/>
<path d="M302.428 249.448C302.276 249.385 302.113 249.352 301.948 249.353H291.359C291.196 249.352 291.035 249.384 290.885 249.446C290.735 249.508 290.598 249.6 290.483 249.715C290.368 249.83 290.277 249.966 290.215 250.117C290.153 250.267 290.121 250.428 290.122 250.591V261.193C290.121 261.356 290.153 261.517 290.214 261.668C290.276 261.818 290.367 261.955 290.482 262.07C290.597 262.185 290.734 262.276 290.884 262.338C291.035 262.4 291.196 262.432 291.359 262.431H301.948C302.276 262.431 302.59 262.3 302.822 262.068C303.054 261.836 303.184 261.521 303.185 261.193V250.591C303.184 250.347 303.112 250.109 302.978 249.906C302.843 249.703 302.652 249.543 302.428 249.448Z" fill="#E6E6E6"/>
<path d="M324.191 177.054H313.602C313.274 177.054 312.96 177.185 312.728 177.417C312.496 177.649 312.366 177.964 312.366 178.292V188.899C312.366 189.061 312.398 189.222 312.46 189.372C312.522 189.522 312.614 189.658 312.728 189.772C312.843 189.887 312.98 189.978 313.13 190.04C313.28 190.101 313.44 190.133 313.602 190.132H324.191C324.519 190.133 324.833 190.003 325.064 189.772C325.296 189.54 325.427 189.226 325.428 188.899V178.292C325.427 177.964 325.297 177.65 325.065 177.418C324.833 177.186 324.519 177.055 324.191 177.054Z" fill="#E6E6E6"/>
<path d="M324.191 195.129H313.602C313.274 195.129 312.96 195.259 312.728 195.491C312.496 195.724 312.366 196.039 312.366 196.367V206.974C312.366 207.136 312.398 207.297 312.46 207.447C312.522 207.596 312.614 207.733 312.728 207.847C312.843 207.962 312.98 208.052 313.13 208.114C313.28 208.176 313.44 208.208 313.602 208.207H324.191C324.519 208.207 324.833 208.077 325.065 207.846C325.296 207.615 325.427 207.301 325.428 206.974V196.367C325.427 196.039 325.297 195.724 325.065 195.492C324.833 195.26 324.519 195.13 324.191 195.129Z" fill="#458FC4"/>
<path d="M324.191 213.203H313.602C313.274 213.203 312.96 213.334 312.728 213.566C312.496 213.798 312.366 214.113 312.366 214.442V225.044C312.365 225.206 312.397 225.367 312.459 225.518C312.521 225.668 312.612 225.805 312.727 225.92C312.842 226.035 312.978 226.126 313.129 226.188C313.279 226.25 313.44 226.282 313.602 226.282H324.191C324.519 226.282 324.834 226.151 325.066 225.919C325.298 225.687 325.428 225.372 325.428 225.044V214.442C325.427 214.113 325.297 213.799 325.065 213.567C324.833 213.335 324.519 213.204 324.191 213.203Z" fill="#458FC4"/>
<path d="M324.191 231.278H313.602C313.343 231.278 313.09 231.36 312.88 231.512C312.67 231.664 312.513 231.879 312.432 232.126C312.388 232.251 312.366 232.383 312.366 232.516V243.118C312.365 243.281 312.397 243.442 312.459 243.592C312.521 243.743 312.612 243.879 312.727 243.994C312.842 244.11 312.978 244.201 313.129 244.263C313.279 244.325 313.44 244.357 313.602 244.356H324.191C324.519 244.356 324.834 244.226 325.066 243.994C325.298 243.761 325.428 243.447 325.428 243.118V232.516C325.427 232.188 325.297 231.874 325.065 231.642C324.833 231.41 324.519 231.279 324.191 231.278Z" fill="#458FC4"/>
<path d="M324.191 249.353H313.602C313.44 249.352 313.279 249.384 313.129 249.446C312.978 249.508 312.842 249.6 312.727 249.715C312.612 249.83 312.521 249.966 312.459 250.117C312.397 250.267 312.365 250.428 312.366 250.591V261.193C312.365 261.355 312.397 261.517 312.459 261.667C312.521 261.817 312.612 261.954 312.727 262.069C312.842 262.184 312.978 262.275 313.129 262.338C313.279 262.4 313.44 262.431 313.602 262.431H324.191C324.519 262.431 324.834 262.3 325.066 262.068C325.298 261.836 325.428 261.521 325.428 261.193V250.591C325.428 250.263 325.298 249.948 325.066 249.715C324.834 249.483 324.519 249.353 324.191 249.353Z" fill="#E6E6E6"/>
<path d="M346.435 177.054H335.846C335.518 177.054 335.204 177.185 334.972 177.417C334.74 177.649 334.61 177.964 334.609 178.292V188.899C334.61 189.061 334.642 189.222 334.704 189.372C334.766 189.522 334.857 189.658 334.972 189.772C335.087 189.887 335.223 189.978 335.373 190.04C335.523 190.101 335.684 190.133 335.846 190.132H346.435C346.763 190.133 347.076 190.003 347.308 189.772C347.54 189.54 347.671 189.226 347.672 188.899V178.292C347.671 177.964 347.541 177.65 347.309 177.418C347.077 177.186 346.763 177.055 346.435 177.054Z" fill="#458FC4"/>
<path d="M346.435 195.129H335.846C335.518 195.129 335.204 195.259 334.972 195.491C334.74 195.724 334.61 196.039 334.609 196.367V206.974C334.61 207.136 334.642 207.297 334.704 207.447C334.766 207.596 334.857 207.733 334.972 207.847C335.087 207.962 335.223 208.052 335.373 208.114C335.523 208.176 335.684 208.208 335.846 208.207H346.435C346.763 208.207 347.076 208.077 347.308 207.846C347.54 207.615 347.671 207.301 347.672 206.974V196.367C347.671 196.039 347.541 195.724 347.309 195.492C347.077 195.26 346.763 195.13 346.435 195.129Z" fill="#458FC4"/>
<path d="M346.435 213.203H335.846C335.518 213.203 335.204 213.334 334.972 213.566C334.74 213.798 334.61 214.113 334.609 214.442V225.044C334.609 225.206 334.641 225.367 334.703 225.518C334.765 225.668 334.856 225.805 334.971 225.92C335.086 226.035 335.222 226.126 335.372 226.188C335.523 226.25 335.684 226.282 335.846 226.282H346.435C346.763 226.282 347.078 226.151 347.31 225.919C347.542 225.687 347.672 225.372 347.672 225.044V214.442C347.671 214.113 347.541 213.799 347.309 213.567C347.077 213.335 346.763 213.204 346.435 213.203Z" fill="#E6E6E6"/>
<path d="M346.435 231.278H335.846C335.518 231.278 335.204 231.409 334.972 231.641C334.74 231.873 334.61 232.188 334.609 232.516V243.118C334.609 243.281 334.641 243.442 334.703 243.592C334.765 243.743 334.856 243.879 334.971 243.994C335.086 244.11 335.222 244.201 335.372 244.263C335.523 244.325 335.684 244.357 335.846 244.356H346.435C346.763 244.356 347.078 244.226 347.31 243.994C347.542 243.761 347.672 243.447 347.672 243.118V232.516C347.671 232.188 347.541 231.874 347.309 231.642C347.077 231.41 346.763 231.279 346.435 231.278Z" fill="#458FC4"/>
<path d="M346.435 249.353H335.846C335.684 249.352 335.523 249.384 335.372 249.446C335.222 249.508 335.086 249.6 334.971 249.715C334.856 249.83 334.765 249.966 334.703 250.117C334.641 250.267 334.609 250.428 334.609 250.591V261.193C334.609 261.355 334.641 261.517 334.703 261.667C334.765 261.817 334.856 261.954 334.971 262.069C335.086 262.184 335.222 262.275 335.372 262.338C335.523 262.4 335.684 262.431 335.846 262.431H346.435C346.763 262.431 347.078 262.3 347.31 262.068C347.542 261.836 347.672 261.521 347.672 261.193V250.591C347.672 250.263 347.542 249.948 347.31 249.715C347.078 249.483 346.763 249.353 346.435 249.353Z" fill="#458FC4"/>
<path d="M368.679 177.054H358.09C357.762 177.054 357.448 177.185 357.216 177.417C356.984 177.649 356.853 177.964 356.853 178.292V188.899C356.853 189.061 356.885 189.222 356.948 189.372C357.01 189.522 357.101 189.658 357.216 189.772C357.331 189.887 357.467 189.978 357.617 190.04C357.767 190.101 357.928 190.133 358.09 190.132H368.679C369.006 190.133 369.32 190.003 369.552 189.772C369.784 189.54 369.915 189.226 369.916 188.899V178.292C369.915 177.964 369.784 177.65 369.553 177.418C369.321 177.186 369.007 177.055 368.679 177.054Z" fill="#458FC4"/>
<path d="M368.679 195.129H358.09C357.762 195.129 357.447 195.259 357.216 195.491C356.984 195.724 356.853 196.039 356.853 196.367V206.974C356.853 207.136 356.885 207.297 356.948 207.447C357.01 207.596 357.101 207.733 357.216 207.847C357.331 207.962 357.467 208.052 357.617 208.114C357.767 208.176 357.928 208.208 358.09 208.207H368.679C369.006 208.207 369.32 208.077 369.552 207.846C369.784 207.615 369.915 207.301 369.916 206.974V196.367C369.915 196.039 369.784 195.724 369.553 195.492C369.321 195.26 369.007 195.13 368.679 195.129Z" fill="white"/>
<path d="M368.679 213.203H358.09C357.762 213.203 357.447 213.334 357.216 213.566C356.984 213.798 356.853 214.113 356.853 214.442V225.044C356.853 225.206 356.885 225.367 356.947 225.518C357.009 225.668 357.1 225.805 357.215 225.92C357.33 226.035 357.466 226.126 357.616 226.188C357.766 226.25 357.927 226.282 358.09 226.282H368.679C369.007 226.282 369.322 226.151 369.554 225.919C369.785 225.687 369.916 225.372 369.916 225.044V214.442C369.915 214.113 369.784 213.799 369.553 213.567C369.321 213.335 369.007 213.204 368.679 213.203Z" fill="white"/>
<path d="M368.679 231.278H358.09C357.762 231.278 357.447 231.409 357.216 231.641C356.984 231.873 356.853 232.188 356.853 232.516V243.118C356.853 243.281 356.885 243.442 356.947 243.592C357.009 243.743 357.1 243.879 357.215 243.994C357.33 244.11 357.466 244.201 357.616 244.263C357.766 244.325 357.927 244.357 358.09 244.356H368.679C369.007 244.356 369.322 244.226 369.554 243.994C369.785 243.761 369.916 243.447 369.916 243.118V232.516C369.915 232.188 369.784 231.874 369.553 231.642C369.321 231.41 369.007 231.279 368.679 231.278Z" fill="#E6E6E6"/>
<path d="M368.679 249.353H358.09C357.927 249.352 357.766 249.384 357.616 249.446C357.466 249.508 357.33 249.6 357.215 249.715C357.1 249.83 357.009 249.966 356.947 250.117C356.885 250.267 356.853 250.428 356.853 250.591V261.193C356.853 261.355 356.885 261.517 356.947 261.667C357.009 261.817 357.1 261.954 357.215 262.069C357.33 262.184 357.466 262.275 357.616 262.338C357.766 262.4 357.927 262.431 358.09 262.431H368.679C369.007 262.431 369.322 262.3 369.554 262.068C369.786 261.836 369.916 261.521 369.916 261.193V250.591C369.916 250.263 369.785 249.948 369.554 249.715C369.322 249.483 369.007 249.353 368.679 249.353Z" fill="#458FC4"/>
<path d="M390.923 177.054H380.329C380.002 177.055 379.688 177.186 379.457 177.418C379.227 177.65 379.097 177.965 379.097 178.292V188.899C379.097 189.226 379.227 189.54 379.458 189.771C379.689 190.002 380.002 190.132 380.329 190.132H390.923C391.25 190.133 391.564 190.003 391.796 189.772C392.028 189.54 392.159 189.227 392.16 188.899V178.292C392.159 177.964 392.028 177.65 391.796 177.418C391.565 177.186 391.251 177.055 390.923 177.054Z" fill="white"/>
<path d="M390.923 195.129H380.329C380.002 195.13 379.688 195.261 379.457 195.493C379.226 195.725 379.097 196.039 379.097 196.367V206.974C379.097 207.301 379.227 207.614 379.458 207.846C379.689 208.077 380.002 208.207 380.329 208.207H390.923C391.25 208.207 391.564 208.077 391.796 207.846C392.028 207.615 392.159 207.301 392.16 206.974V196.367C392.159 196.039 392.028 195.724 391.796 195.492C391.565 195.26 391.251 195.13 390.923 195.129Z" fill="white"/>
<path d="M390.923 213.203H380.329C380.002 213.204 379.688 213.335 379.457 213.568C379.227 213.8 379.097 214.114 379.097 214.442V225.044C379.097 225.206 379.128 225.367 379.19 225.517C379.251 225.667 379.342 225.803 379.457 225.918C379.571 226.033 379.707 226.125 379.857 226.187C380.006 226.249 380.167 226.282 380.329 226.282H390.923C391.251 226.282 391.565 226.151 391.797 225.919C392.029 225.687 392.16 225.372 392.16 225.044V214.442C392.159 214.113 392.028 213.799 391.796 213.567C391.565 213.335 391.251 213.204 390.923 213.203Z" fill="white"/>
<path d="M390.923 231.278H380.329C380.002 231.279 379.688 231.41 379.457 231.642C379.227 231.874 379.097 232.189 379.097 232.516V243.118C379.097 243.28 379.128 243.441 379.19 243.591C379.251 243.742 379.342 243.878 379.457 243.993C379.571 244.108 379.707 244.199 379.857 244.262C380.006 244.324 380.167 244.356 380.329 244.356H390.923C391.251 244.356 391.565 244.226 391.797 243.994C392.029 243.761 392.16 243.447 392.16 243.118V232.516C392.159 232.188 392.028 231.874 391.796 231.642C391.565 231.41 391.251 231.279 390.923 231.278Z" fill="#458FC4"/>
<path d="M390.923 249.353H380.329C380.167 249.353 380.006 249.385 379.857 249.447C379.707 249.51 379.571 249.601 379.457 249.716C379.342 249.831 379.251 249.967 379.19 250.118C379.128 250.268 379.097 250.429 379.097 250.591V261.193C379.097 261.355 379.128 261.516 379.19 261.666C379.251 261.816 379.342 261.953 379.457 262.068C379.571 262.183 379.707 262.274 379.857 262.336C380.006 262.399 380.167 262.431 380.329 262.431H390.923C391.251 262.431 391.565 262.3 391.797 262.068C392.029 261.836 392.16 261.521 392.16 261.193V250.591C392.16 250.263 392.029 249.948 391.797 249.715C391.565 249.483 391.251 249.353 390.923 249.353Z" fill="#E6E6E6"/>
<path d="M413.167 177.054H402.573C402.246 177.055 401.932 177.186 401.701 177.418C401.47 177.65 401.341 177.965 401.341 178.292V188.899C401.341 189.226 401.471 189.54 401.702 189.771C401.933 190.002 402.246 190.132 402.573 190.132H413.167C413.494 190.133 413.808 190.003 414.04 189.772C414.272 189.54 414.403 189.226 414.404 188.899V178.292C414.403 177.964 414.272 177.65 414.04 177.418C413.809 177.186 413.495 177.055 413.167 177.054Z" fill="white"/>
<path d="M413.167 195.129H402.573C402.246 195.13 401.932 195.261 401.701 195.493C401.47 195.725 401.341 196.039 401.341 196.367V206.974C401.341 207.301 401.471 207.614 401.702 207.846C401.933 208.077 402.246 208.207 402.573 208.207H413.167C413.494 208.207 413.808 208.077 414.04 207.846C414.272 207.615 414.403 207.301 414.404 206.974V196.367C414.403 196.039 414.272 195.724 414.04 195.492C413.809 195.26 413.495 195.13 413.167 195.129Z" fill="white"/>
<path d="M413.167 213.203H402.573C402.246 213.204 401.932 213.335 401.701 213.568C401.47 213.8 401.341 214.114 401.341 214.442V225.044C401.34 225.206 401.372 225.367 401.434 225.517C401.495 225.667 401.586 225.803 401.7 225.918C401.815 226.033 401.951 226.125 402.101 226.187C402.25 226.249 402.411 226.282 402.573 226.282H413.167C413.495 226.282 413.809 226.151 414.041 225.919C414.273 225.687 414.403 225.372 414.404 225.044V214.442C414.403 214.113 414.272 213.799 414.04 213.567C413.809 213.335 413.495 213.204 413.167 213.203Z" fill="#458FC4"/>
<path d="M413.167 231.278H402.573C402.246 231.279 401.932 231.41 401.701 231.642C401.47 231.874 401.341 232.189 401.341 232.516V243.118C401.34 243.28 401.372 243.441 401.434 243.591C401.495 243.742 401.586 243.878 401.7 243.993C401.815 244.108 401.951 244.199 402.101 244.262C402.25 244.324 402.411 244.356 402.573 244.356H413.167C413.495 244.356 413.809 244.226 414.041 243.994C414.273 243.761 414.403 243.447 414.404 243.118V232.516C414.403 232.188 414.272 231.874 414.04 231.642C413.809 231.41 413.495 231.279 413.167 231.278Z" fill="#E6E6E6"/>
<path d="M413.167 249.353H402.573C402.411 249.353 402.25 249.385 402.101 249.447C401.951 249.51 401.815 249.601 401.7 249.716C401.586 249.831 401.495 249.967 401.434 250.118C401.372 250.268 401.34 250.429 401.341 250.591V261.193C401.34 261.355 401.372 261.516 401.434 261.666C401.495 261.816 401.586 261.953 401.7 262.068C401.815 262.183 401.951 262.274 402.101 262.336C402.25 262.399 402.411 262.431 402.573 262.431H413.167C413.495 262.431 413.809 262.3 414.041 262.068C414.273 261.836 414.403 261.521 414.404 261.193V250.591C414.403 250.263 414.273 249.948 414.041 249.715C413.809 249.483 413.495 249.353 413.167 249.353Z" fill="white"/>
<path d="M435.411 177.054H424.817C424.49 177.055 424.176 177.186 423.945 177.418C423.714 177.65 423.585 177.965 423.585 178.292V188.899C423.585 189.226 423.715 189.54 423.946 189.771C424.177 190.002 424.49 190.132 424.817 190.132H435.411C435.738 190.133 436.052 190.003 436.284 189.772C436.515 189.54 436.646 189.226 436.647 188.899V178.292C436.646 177.964 436.516 177.65 436.284 177.418C436.052 177.186 435.738 177.055 435.411 177.054Z" fill="#458FC4"/>
<path d="M435.411 195.129H424.817C424.489 195.13 424.176 195.261 423.945 195.493C423.714 195.725 423.585 196.039 423.585 196.367V206.974C423.585 207.301 423.715 207.614 423.946 207.846C424.177 208.077 424.49 208.207 424.817 208.207H435.411C435.738 208.207 436.052 208.077 436.284 207.846C436.515 207.615 436.646 207.301 436.647 206.974V196.367C436.646 196.039 436.516 195.724 436.284 195.492C436.052 195.26 435.738 195.13 435.411 195.129Z" fill="#458FC4"/>
<path d="M435.411 213.203H424.817C424.489 213.204 424.176 213.335 423.945 213.568C423.714 213.8 423.585 214.114 423.585 214.442V225.044C423.584 225.206 423.616 225.367 423.677 225.517C423.739 225.667 423.83 225.803 423.944 225.918C424.059 226.033 424.195 226.125 424.344 226.187C424.494 226.249 424.655 226.282 424.817 226.282H435.411C435.739 226.282 436.053 226.151 436.285 225.919C436.517 225.687 436.647 225.372 436.647 225.044V214.442C436.646 214.113 436.516 213.799 436.284 213.567C436.052 213.335 435.738 213.204 435.411 213.203Z" fill="#E6E6E6"/>
<path d="M435.411 231.278H424.817C424.489 231.279 424.176 231.41 423.945 231.642C423.714 231.874 423.585 232.189 423.585 232.516V243.118C423.584 243.28 423.616 243.441 423.677 243.591C423.739 243.742 423.83 243.878 423.944 243.993C424.059 244.108 424.195 244.199 424.344 244.262C424.494 244.324 424.655 244.356 424.817 244.356H435.411C435.739 244.356 436.053 244.226 436.285 243.994C436.517 243.761 436.647 243.447 436.647 243.118V232.516C436.646 232.188 436.516 231.874 436.284 231.642C436.052 231.41 435.738 231.279 435.411 231.278Z" fill="white"/>
<path d="M435.411 249.353H424.817C424.655 249.353 424.494 249.385 424.344 249.447C424.195 249.51 424.059 249.601 423.944 249.716C423.83 249.831 423.739 249.967 423.677 250.118C423.616 250.268 423.584 250.429 423.585 250.591V261.193C423.584 261.355 423.616 261.516 423.677 261.666C423.739 261.816 423.83 261.953 423.944 262.068C424.059 262.183 424.195 262.274 424.344 262.336C424.494 262.399 424.655 262.431 424.817 262.431H435.411C435.739 262.431 436.053 262.3 436.285 262.068C436.517 261.836 436.647 261.521 436.647 261.193V250.591C436.647 250.263 436.517 249.948 436.285 249.715C436.053 249.483 435.739 249.353 435.411 249.353Z" fill="#458FC4"/>
<path d="M457.654 177.054H447.061C446.733 177.055 446.42 177.186 446.189 177.418C445.958 177.65 445.828 177.965 445.828 178.292V188.899C445.829 189.226 445.958 189.54 446.189 189.771C446.42 190.002 446.734 190.132 447.061 190.132H457.654C457.982 190.133 458.296 190.003 458.527 189.772C458.759 189.54 458.89 189.226 458.891 188.899V178.292C458.89 177.964 458.76 177.65 458.528 177.418C458.296 177.186 457.982 177.055 457.654 177.054Z" fill="#458FC4"/>
<path d="M457.654 195.129H447.061C446.733 195.13 446.42 195.261 446.189 195.493C445.958 195.725 445.828 196.039 445.828 196.367V206.974C445.829 207.301 445.958 207.614 446.189 207.846C446.42 208.077 446.734 208.207 447.061 208.207H457.654C457.982 208.207 458.296 208.077 458.527 207.846C458.759 207.615 458.89 207.301 458.891 206.974V196.367C458.89 196.039 458.76 195.724 458.528 195.492C458.296 195.26 457.982 195.13 457.654 195.129Z" fill="#458FC4"/>
<path d="M457.654 213.203H447.061C446.733 213.204 446.42 213.335 446.189 213.568C445.958 213.8 445.828 214.114 445.828 214.442V225.044C445.828 225.206 445.86 225.367 445.921 225.517C445.983 225.667 446.074 225.803 446.188 225.918C446.302 226.033 446.438 226.125 446.588 226.187C446.738 226.249 446.898 226.282 447.061 226.282H457.654C457.982 226.282 458.297 226.151 458.529 225.919C458.761 225.687 458.891 225.372 458.891 225.044V214.442C458.89 214.113 458.76 213.799 458.528 213.567C458.296 213.335 457.982 213.204 457.654 213.203Z" fill="#E6E6E6"/>
<path d="M457.654 231.278H447.061C446.733 231.279 446.42 231.41 446.189 231.642C445.958 231.874 445.828 232.189 445.828 232.516V243.118C445.828 243.28 445.86 243.441 445.921 243.591C445.983 243.742 446.074 243.878 446.188 243.993C446.302 244.108 446.438 244.199 446.588 244.262C446.738 244.324 446.898 244.356 447.061 244.356H457.654C457.982 244.356 458.297 244.226 458.529 243.994C458.761 243.761 458.891 243.447 458.891 243.118V232.516C458.89 232.188 458.76 231.874 458.528 231.642C458.296 231.41 457.982 231.279 457.654 231.278Z" fill="#458FC4"/>
<path d="M457.654 249.353H447.061C446.898 249.353 446.738 249.385 446.588 249.447C446.438 249.51 446.302 249.601 446.188 249.716C446.074 249.831 445.983 249.967 445.921 250.118C445.86 250.268 445.828 250.429 445.828 250.591V261.193C445.828 261.355 445.86 261.516 445.921 261.666C445.983 261.816 446.074 261.953 446.188 262.068C446.302 262.183 446.438 262.274 446.588 262.336C446.738 262.399 446.898 262.431 447.061 262.431H457.654C457.982 262.431 458.297 262.3 458.529 262.068C458.761 261.836 458.891 261.521 458.891 261.193V250.591C458.891 250.263 458.761 249.948 458.529 249.715C458.297 249.483 457.982 249.353 457.654 249.353Z" fill="#458FC4"/>
<path d="M479.898 177.054H469.304C468.977 177.055 468.664 177.186 468.433 177.418C468.202 177.65 468.072 177.965 468.072 178.292V188.899C468.072 189.226 468.202 189.54 468.433 189.771C468.664 190.002 468.978 190.132 469.304 190.132H479.898C480.226 190.133 480.539 190.003 480.771 189.772C481.003 189.54 481.134 189.226 481.135 188.899V178.292C481.134 177.964 481.004 177.65 480.772 177.418C480.54 177.186 480.226 177.055 479.898 177.054Z" fill="#E6E6E6"/>
<path d="M479.898 195.129H469.304C468.977 195.13 468.664 195.261 468.433 195.493C468.202 195.725 468.072 196.039 468.072 196.367V206.974C468.072 207.301 468.202 207.614 468.433 207.846C468.664 208.077 468.978 208.207 469.304 208.207H479.898C480.226 208.207 480.539 208.077 480.771 207.846C481.003 207.615 481.134 207.301 481.135 206.974V196.367C481.134 196.039 481.004 195.724 480.772 195.492C480.54 195.26 480.226 195.13 479.898 195.129Z" fill="#458FC4"/>
<path d="M479.898 213.203H469.304C468.977 213.204 468.664 213.335 468.433 213.568C468.202 213.8 468.072 214.114 468.072 214.442V225.044C468.072 225.206 468.103 225.367 468.165 225.517C468.227 225.667 468.317 225.803 468.432 225.918C468.546 226.033 468.682 226.125 468.832 226.187C468.982 226.249 469.142 226.282 469.304 226.282H479.898C480.226 226.282 480.541 226.151 480.773 225.919C481.005 225.687 481.135 225.372 481.135 225.044V214.442C481.134 214.113 481.004 213.799 480.772 213.567C480.54 213.335 480.226 213.204 479.898 213.203Z" fill="#458FC4"/>
<path d="M479.898 231.278H469.304C468.977 231.279 468.664 231.41 468.433 231.642C468.202 231.874 468.072 232.189 468.072 232.516V243.118C468.072 243.28 468.103 243.441 468.165 243.591C468.227 243.742 468.317 243.878 468.432 243.993C468.546 244.108 468.682 244.199 468.832 244.262C468.982 244.324 469.142 244.356 469.304 244.356H479.898C480.226 244.356 480.541 244.226 480.773 243.994C481.005 243.761 481.135 243.447 481.135 243.118V232.516C481.134 232.188 481.004 231.874 480.772 231.642C480.54 231.41 480.226 231.279 479.898 231.278Z" fill="#458FC4"/>
<path d="M479.898 249.353H469.304C469.142 249.353 468.982 249.385 468.832 249.447C468.682 249.51 468.546 249.601 468.432 249.716C468.317 249.831 468.227 249.967 468.165 250.118C468.103 250.268 468.072 250.429 468.072 250.591V261.193C468.072 261.355 468.103 261.516 468.165 261.666C468.227 261.816 468.317 261.953 468.432 262.068C468.546 262.183 468.682 262.274 468.832 262.336C468.982 262.399 469.142 262.431 469.304 262.431H479.898C480.226 262.431 480.541 262.3 480.773 262.068C481.005 261.836 481.135 261.521 481.135 261.193V250.591C481.135 250.263 481.005 249.948 480.773 249.715C480.541 249.483 480.226 249.353 479.898 249.353Z" fill="#E6E6E6"/>
<path d="M502.142 177.054H491.548C491.221 177.055 490.907 177.186 490.677 177.418C490.446 177.65 490.316 177.965 490.316 178.292V188.899C490.316 189.226 490.446 189.54 490.677 189.771C490.908 190.002 491.221 190.132 491.548 190.132H502.142C502.469 190.133 502.783 190.003 503.015 189.772C503.247 189.54 503.378 189.226 503.379 188.899V178.292C503.378 177.964 503.247 177.65 503.016 177.418C502.784 177.186 502.47 177.055 502.142 177.054Z" fill="#E6E6E6"/>
<path d="M502.142 195.129H491.548C491.221 195.13 490.907 195.261 490.677 195.493C490.446 195.725 490.316 196.039 490.316 196.367V206.974C490.316 207.301 490.446 207.614 490.677 207.846C490.908 208.077 491.221 208.207 491.548 208.207H502.142C502.469 208.207 502.783 208.077 503.015 207.846C503.247 207.615 503.378 207.301 503.379 206.974V196.367C503.378 196.039 503.247 195.724 503.016 195.492C502.784 195.26 502.47 195.13 502.142 195.129Z" fill="#E6E6E6"/>
<path d="M502.142 213.203H491.548C491.221 213.204 490.907 213.335 490.677 213.568C490.446 213.8 490.316 214.114 490.316 214.442V225.044C490.316 225.206 490.347 225.367 490.409 225.517C490.471 225.667 490.561 225.803 490.676 225.918C490.79 226.033 490.926 226.125 491.076 226.187C491.225 226.249 491.386 226.282 491.548 226.282H502.142C502.47 226.282 502.785 226.151 503.016 225.919C503.248 225.687 503.379 225.372 503.379 225.044V214.442C503.378 214.113 503.247 213.799 503.016 213.567C502.784 213.335 502.47 213.204 502.142 213.203Z" fill="#458FC4"/>
<path d="M502.142 231.278H491.548C491.221 231.279 490.907 231.41 490.677 231.642C490.446 231.874 490.316 232.189 490.316 232.516V243.118C490.316 243.28 490.347 243.441 490.409 243.591C490.471 243.742 490.561 243.878 490.676 243.993C490.79 244.108 490.926 244.199 491.076 244.262C491.225 244.324 491.386 244.356 491.548 244.356H502.142C502.47 244.356 502.785 244.226 503.016 243.994C503.248 243.761 503.379 243.447 503.379 243.118V232.516C503.378 232.188 503.247 231.874 503.016 231.642C502.784 231.41 502.47 231.279 502.142 231.278Z" fill="#E6E6E6"/>
<path d="M502.142 249.353H491.548C491.386 249.353 491.225 249.385 491.076 249.447C490.926 249.51 490.79 249.601 490.676 249.716C490.561 249.831 490.471 249.967 490.409 250.118C490.347 250.268 490.316 250.429 490.316 250.591V261.193C490.316 261.355 490.347 261.516 490.409 261.666C490.471 261.816 490.561 261.953 490.676 262.068C490.79 262.183 490.926 262.274 491.076 262.336C491.225 262.399 491.386 262.431 491.548 262.431H502.142C502.47 262.431 502.785 262.3 503.016 262.068C503.248 261.836 503.379 261.521 503.379 261.193V250.591C503.379 250.263 503.248 249.948 503.016 249.715C502.785 249.483 502.47 249.353 502.142 249.353Z" fill="#E6E6E6"/>
<path d="M258.658 405.667H258.362L258.615 405.634L258.658 405.667Z" fill="#2F2E41"/>
<path d="M233.312 208.014C251.261 208.014 265.812 193.446 265.812 175.474C265.812 157.503 251.261 142.934 233.312 142.934C215.362 142.934 200.811 157.503 200.811 175.474C200.811 193.446 215.362 208.014 233.312 208.014Z" fill="#FFB6B6"/>
<path d="M261.774 151.616C261.774 151.616 270.274 135.346 251.573 133.867C251.573 133.867 235.63 119.387 219.379 131.22C219.379 131.22 210.515 131.22 205.668 141.263C205.668 141.263 198.697 138.616 197.165 145.7C197.165 145.7 192.064 160.491 197.165 173.803C202.266 187.115 203.96 188.594 203.96 188.594C203.96 188.594 195.578 160.685 215.981 159.206C236.385 157.726 259.216 144.96 260.917 161.23C262.617 177.5 265.176 181.509 265.176 181.509C265.176 181.509 281.326 158.272 261.774 151.616Z" fill="#2F2E41"/>
<path d="M317.384 255.668L317.279 256.22L316.104 262.431L307.984 305.391L307.504 307.92L306.495 313.269L305.116 320.565L302.057 336.735L301.182 341.369L300.854 343.107L300.739 343.717L299.831 348.513L299.555 349.961L297.338 366.407L295.402 380.738L301.881 387.225L298.018 391.092L295.483 405.633L295.488 405.666H192.008C187.822 402.951 183.696 400.153 179.63 397.269L180.482 390.887C180.482 390.887 183.412 379.49 182.18 378.128C180.953 376.766 178.26 374.332 178.26 374.332L181.652 366.407L182.123 365.307L181.333 348.908L181.314 348.513L181.053 343.107L181.019 342.412L180.967 341.369L179.963 320.565L179.944 320.222L179.64 313.916L179.355 307.92L179.231 305.391L178.008 280.087L177.181 262.903L176.458 247.943L179.364 246.957L210.451 236.379L223.328 219.619L250.129 219.819L263.249 219.919L285.141 240.246L290.122 242.628L290.16 242.647L293.732 244.356L302.79 248.686L312.366 253.268L317.28 255.616L317.384 255.668Z" fill="#CACACA"/>
<path d="M226.792 356.849C224.828 357.61 222.721 357.932 220.619 357.79C218.518 357.648 216.473 357.047 214.629 356.029C212.785 355.01 211.186 353.599 209.945 351.895C208.704 350.191 207.852 348.235 207.448 346.166L156.758 338.965L174.379 319.009L219.814 328.906C223.331 328.456 226.891 329.315 229.819 331.318C232.747 333.321 234.839 336.33 235.699 339.774C236.56 343.218 236.128 346.859 234.486 350.006C232.844 353.153 230.107 355.588 226.792 356.849V356.849Z" fill="#FFB6B6"/>
<path d="M204.191 320.565C203.252 319.374 201.923 318.552 200.438 318.246L179.64 313.916L177.504 313.474C176.263 313.214 175.09 312.695 174.063 311.951C173.036 311.207 172.177 310.253 171.543 309.154C170.886 307.999 170.488 306.715 170.378 305.391C170.279 304.187 170.423 302.976 170.801 301.829L178.008 280.087L182.684 265.979C183.251 264.278 183.586 262.508 183.679 260.717C183.939 255.76 182.407 250.875 179.364 246.957C176.688 243.513 172.977 241.022 168.779 239.852C164.581 238.683 160.118 238.896 156.05 240.46C155.931 240.503 155.807 240.551 155.688 240.599C152.771 241.765 150.164 243.595 148.075 245.943C145.985 248.291 144.47 251.094 143.648 254.13L138.568 272.633L128.088 310.778C127.039 314.6 126.827 318.603 127.467 322.515C128.106 326.426 129.583 330.153 131.794 333.44C134.006 336.727 136.901 339.497 140.281 341.56C143.661 343.624 147.447 344.931 151.378 345.394L181.333 348.909L195.195 350.537C196.798 350.73 198.415 350.311 199.723 349.364C201.031 348.417 201.935 347.011 202.255 345.427C202.277 345.341 202.295 345.253 202.307 345.165L202.64 343.107L205.461 325.781L205.489 325.604C205.636 324.72 205.597 323.815 205.373 322.947C205.149 322.079 204.747 321.268 204.191 320.565Z" fill="#CACACA"/>
<path d="M259.08 357.404C261.131 357.881 263.262 357.902 265.323 357.465C267.383 357.028 269.323 356.144 271.005 354.875C272.688 353.606 274.072 351.984 275.06 350.122C276.048 348.259 276.617 346.203 276.725 344.097L325.895 329.812L305.639 312.542L262.052 328.755C258.506 328.807 255.103 330.159 252.486 332.556C249.87 334.952 248.222 338.226 247.856 341.758C247.49 345.289 248.43 348.832 250.498 351.716C252.567 354.6 255.62 356.624 259.08 357.404V357.404Z" fill="#FFB6B6"/>
<path d="M350.308 297.857L326.922 243.971C325.009 239.547 321.593 235.944 317.279 233.802C315.946 233.145 314.546 232.634 313.103 232.278C312.879 232.221 312.656 232.169 312.432 232.126C309.372 231.457 306.199 231.516 303.165 232.297C300.393 233.01 297.802 234.301 295.561 236.084C293.32 237.867 291.479 240.103 290.16 242.647C290.145 242.668 290.133 242.69 290.122 242.713C288.648 245.568 287.864 248.73 287.833 251.944C287.803 255.158 288.526 258.334 289.946 261.217L290.236 261.798L306.762 295.027C307.326 296.164 307.644 297.407 307.695 298.675C307.745 299.943 307.528 301.207 307.056 302.385C306.585 303.563 305.87 304.628 304.958 305.509C304.046 306.391 302.959 307.07 301.767 307.501L300.606 307.92L279.732 315.469C278.166 316.029 276.878 317.175 276.139 318.667C275.399 320.158 275.267 321.879 275.77 323.466L275.822 323.633L281.673 342.379C281.702 342.465 281.73 342.55 281.764 342.636C281.815 342.798 281.879 342.955 281.954 343.107C282.576 344.504 283.675 345.632 285.053 346.29C286.432 346.947 288 347.09 289.475 346.694L300.739 343.717L303.037 343.107L332.126 335.416C335.954 334.403 339.517 332.574 342.573 330.054C345.63 327.535 348.106 324.384 349.832 320.817C351.559 317.25 352.495 313.351 352.577 309.389C352.659 305.426 351.885 301.492 350.307 297.856L350.308 297.857Z" fill="#CACACA"/>
<path d="M120.134 343.107C126.875 351.339 134.145 359.122 141.898 366.407H356.901C358.972 366.41 360.958 367.236 362.422 368.703C363.886 370.17 364.71 372.158 364.712 374.232L365.021 428.78C378.248 422.696 390.634 414.927 401.874 405.666C404.994 403.099 408.018 400.421 410.945 397.632C412.862 395.812 414.733 393.948 416.559 392.04C430.242 377.769 441.322 361.207 449.296 343.107H120.134Z" fill="#3F3D56"/>
<path d="M416.558 392.04C414.737 393.95 412.865 395.814 410.945 397.632H365.178V392.04H416.558Z" fill="white"/>
<path d="M316.956 213.203C316.73 212.785 316.395 212.437 315.988 212.193C315.58 211.95 315.114 211.822 314.639 211.822H158.685C157.986 211.824 157.316 212.103 156.822 212.599C156.328 213.094 156.05 213.765 156.05 214.465V307.92H317.279V214.465C317.282 214.024 317.171 213.589 316.956 213.203Z" fill="#3F3D56"/>
<path d="M155.909 305.39V316.922C155.909 317.401 156.003 317.874 156.185 318.316C156.368 318.757 156.636 319.159 156.974 319.497C157.311 319.835 157.712 320.103 158.153 320.286C158.594 320.469 159.067 320.563 159.545 320.563H219.054V343.323H218.263C218.201 343.323 218.14 343.335 218.082 343.359C218.025 343.382 217.973 343.417 217.929 343.461C217.885 343.505 217.85 343.557 217.827 343.615C217.803 343.672 217.791 343.733 217.791 343.796V345.379C217.791 345.441 217.803 345.502 217.827 345.56C217.85 345.617 217.885 345.669 217.929 345.713C217.973 345.757 218.025 345.792 218.082 345.816C218.14 345.839 218.201 345.852 218.263 345.852H255.205C255.267 345.852 255.329 345.839 255.386 345.816C255.443 345.792 255.495 345.757 255.539 345.713C255.583 345.669 255.618 345.617 255.642 345.56C255.665 345.502 255.678 345.441 255.678 345.379V343.796C255.678 343.733 255.665 343.672 255.642 343.615C255.618 343.557 255.583 343.505 255.539 343.461C255.495 343.417 255.443 343.382 255.386 343.359C255.329 343.335 255.267 343.323 255.205 343.323H254.415V320.563H313.924C314.401 320.563 314.874 320.469 315.315 320.286C315.756 320.103 316.157 319.835 316.495 319.497C316.832 319.159 317.1 318.757 317.283 318.316C317.466 317.874 317.56 317.401 317.56 316.922V305.39H155.909Z" fill="#3F3D56"/>
<path d="M234.781 272.29C243.006 272.29 249.673 265.615 249.673 257.38C249.673 249.145 243.006 242.469 234.781 242.469C226.556 242.469 219.888 249.145 219.888 257.38C219.888 265.615 226.556 272.29 234.781 272.29Z" fill="#458FC4"/>
<path d="M272.725 173.696H270.347C270.347 155.693 252.551 143.896 234.598 143.886C231.986 143.878 229.381 144.132 226.82 144.643C223.937 145.22 220.945 145.91 218.005 146.81C206.412 150.368 195.662 157.246 195.662 173.696C195.659 176.891 196.065 180.073 196.87 183.165L194.567 183.765C193.713 180.477 193.282 177.093 193.283 173.696C193.283 159.322 199.177 149.449 209.357 143.562C214.709 140.466 221.24 138.471 228.723 137.499C231.837 137.084 234.985 136.989 238.118 137.213C258.763 138.699 272.725 154.55 272.725 173.696Z" fill="#458FC4"/>
<path d="M276.688 175.015L275.751 168.081C275.52 166.33 274.677 164.717 273.372 163.528C272.535 162.753 271.532 162.178 270.44 161.848C269.348 161.518 268.195 161.441 267.069 161.623L265.58 161.827C265.173 161.881 264.78 162.015 264.425 162.222C264.07 162.429 263.759 162.704 263.511 163.032C263.261 163.359 263.078 163.733 262.972 164.131C262.867 164.529 262.842 164.944 262.897 165.352L265.062 181.326C265.151 181.977 265.442 182.584 265.895 183.06C266.347 183.536 266.938 183.857 267.583 183.979C267.774 184.017 267.968 184.036 268.163 184.036C268.303 184.036 268.443 184.027 268.582 184.008L270.247 183.784C271.262 183.649 272.239 183.308 273.117 182.781C273.996 182.254 274.758 181.553 275.356 180.721C275.484 180.54 275.608 180.355 275.722 180.164C276.614 178.606 276.954 176.792 276.688 175.015Z" fill="#458FC4"/>
<path d="M264.619 162.118C264.183 162.33 263.803 162.644 263.511 163.032C263.261 163.359 263.078 163.733 262.972 164.131C262.867 164.529 262.842 164.944 262.897 165.352L265.062 181.326C265.151 181.977 265.442 182.584 265.895 183.06C266.347 183.536 266.938 183.857 267.583 183.979L264.619 162.118Z" fill="white"/>
<path d="M276.688 175.015L275.751 168.081C275.52 166.33 274.677 164.717 273.372 163.528L275.527 179.421C275.559 179.676 275.625 179.926 275.722 180.164C276.614 178.606 276.954 176.792 276.688 175.015Z" fill="#3F3D56"/>
<path d="M269.281 180.012C269.932 179.924 270.259 178.373 270.012 176.548C269.765 174.724 269.037 173.316 268.386 173.405C267.735 173.493 267.408 175.044 267.655 176.868C267.902 178.693 268.631 180.1 269.281 180.012Z" fill="#3F3D56"/>
<path d="M267.854 171.439C268.505 171.351 268.832 169.8 268.585 167.975C268.338 166.151 267.61 164.743 266.959 164.832C266.308 164.92 265.981 166.471 266.228 168.295C266.475 170.12 267.203 171.527 267.854 171.439Z" fill="#3F3D56"/>
<path d="M276.893 174.773C277.543 174.684 277.871 173.134 277.623 171.309C277.376 169.485 276.648 168.077 275.997 168.166C275.346 168.254 275.019 169.805 275.266 171.629C275.514 173.454 276.242 174.861 276.893 174.773Z" fill="#3F3D56"/>
<path d="M234.598 143.886C231.986 143.878 229.381 144.132 226.82 144.643C223.937 145.22 220.945 145.91 218.005 146.81C213.415 146.587 210.037 145.396 209.357 143.562C214.709 140.466 221.24 138.471 228.723 137.499C231.837 137.084 234.985 136.989 238.118 137.213C238.45 137.408 238.736 137.671 238.959 137.984C239.182 138.298 239.337 138.655 239.412 139.033C239.635 140.69 237.747 142.452 234.598 143.886Z" fill="#3F3D56"/>
<path d="M204.229 190.223L200.566 174.977C200.435 174.427 200.145 173.928 199.732 173.543C199.319 173.157 198.802 172.902 198.245 172.81C198.087 172.786 197.928 172.773 197.769 172.772C197.545 172.773 197.321 172.8 197.103 172.853L195.685 173.196C193.86 173.638 192.285 174.787 191.304 176.391C190.324 177.994 190.02 179.922 190.457 181.75L192.099 188.589C192.473 190.199 193.366 191.642 194.639 192.695C194.845 192.862 195.061 193.016 195.286 193.157C196.083 193.657 196.973 193.993 197.902 194.143C198.83 194.294 199.78 194.256 200.694 194.033L202.107 193.69C202.481 193.603 202.832 193.439 203.14 193.209C203.596 192.876 203.944 192.414 204.138 191.882C204.332 191.35 204.364 190.773 204.229 190.223Z" fill="#458FC4"/>
<path d="M196.55 187.386C197.189 187.232 197.357 185.657 196.927 183.866C196.497 182.076 195.63 180.75 194.992 180.904C194.353 181.057 194.184 182.633 194.615 184.423C195.045 186.214 195.911 187.54 196.55 187.386Z" fill="#3F3D56"/>
<path d="M191.793 188.815C192.432 188.661 192.6 187.085 192.17 185.295C191.74 183.505 190.873 182.178 190.235 182.332C189.596 182.486 189.427 184.062 189.858 185.852C190.288 187.643 191.154 188.969 191.793 188.815Z" fill="#3F3D56"/>
<path d="M204.462 190.166L200.799 174.92C200.656 174.325 200.342 173.785 199.894 173.369C199.446 172.952 198.886 172.676 198.283 172.577L203.282 193.4C203.776 193.038 204.152 192.537 204.362 191.962C204.572 191.386 204.606 190.761 204.462 190.166Z" fill="white"/>
<path d="M191.285 178.73C191.184 178.306 190.994 177.909 190.729 177.564C190.214 178.899 190.119 180.36 190.457 181.75L192.099 188.589C192.473 190.199 193.366 191.642 194.639 192.695L191.285 178.73Z" fill="#3F3D56"/>
</g>
<defs>
<clipPath id="clip0_16_626">
<rect width="624" height="544" fill="white"/>
</clipPath>
<clipPath id="clip1_16_626">
<rect width="404.603" height="352.839" fill="white" transform="translate(98.7762 91.3007)"/>
</clipPath>
</defs>
</svg>
