<svg width="24" height="28" viewBox="0 0 24 28" fill="none" xmlns="http://www.w3.org/2000/svg">
<path d="M5.87988 12.3154H3.7793V17H1.14258V4.20312H5.89746C7.40918 4.20312 8.5752 4.54004 9.39551 5.21387C10.2158 5.8877 10.626 6.83984 10.626 8.07031C10.626 8.94336 10.4355 9.67285 10.0547 10.2588C9.67969 10.8389 9.1084 11.3018 8.34082 11.6475L11.1094 16.877V17H8.2793L5.87988 12.3154ZM3.7793 10.1797H5.90625C6.56836 10.1797 7.08105 10.0127 7.44434 9.67871C7.80762 9.33887 7.98926 8.87305 7.98926 8.28125C7.98926 7.67773 7.81641 7.20312 7.4707 6.85742C7.13086 6.51172 6.60645 6.33887 5.89746 6.33887H3.7793V10.1797ZM19.8633 14.3633H15.2402L14.3613 17H11.5576L16.3213 4.20312H18.7646L23.5547 17H20.751L19.8633 14.3633ZM15.9521 12.2275H19.1514L17.543 7.4375L15.9521 12.2275Z" fill="#EFF6FA"/>
<rect y="23" width="24" height="5" fill="#18FBCC"/>
</svg>
